<?xml version="1.0" encoding="utf-8"?>
<!-- Generator: Adobe Illustrator 24.2.0, SVG Export Plug-In . SVG Version: 6.00 Build 0)  -->
<svg version="1.1" id="圖層_1" xmlns="http://www.w3.org/2000/svg" xmlns:xlink="http://www.w3.org/1999/xlink" x="0px" y="0px"
	 viewBox="0 0 102.5 102.5" style="enable-background:new 0 0 102.5 102.5;" xml:space="preserve">
<style type="text/css">
	.st0{fill:none;stroke:#FFFFFF;stroke-width:2.5;stroke-linecap:round;stroke-linejoin:round;}
	.st1{fill:#FFFFFF;}
</style>
<g id="icon_drag" transform="translate(1 1)">
	<g id="グループ_760">
		<path id="パス_950" class="st0" d="M7.2,57.2l-7-7l7-7"/>
		<line id="線_84" class="st0" x1="23.4" y1="50.2" x2="0.2" y2="50.2"/>
		<path id="パス_951" class="st0" d="M43.3,7.2l7-7l7,7"/>
		<line id="線_85" class="st0" x1="50.2" y1="27.8" x2="50.2" y2="0.2"/>
		<path id="パス_952" class="st0" d="M93.3,43.3l7,7l-7,7"/>
		<line id="線_86" class="st0" x1="77.1" y1="50.2" x2="100.2" y2="50.2"/>
		<path id="パス_953" class="st0" d="M57.2,93.3l-7,7l-7-7"/>
		<line id="線_87" class="st0" x1="50.2" y1="72.7" x2="50.2" y2="100.2"/>
	</g>
</g>
<g>
	<path class="st1" d="M33.1,57.6c-0.5,0-0.7-0.2-0.8-0.5c-0.1-0.3-0.1-2.6-0.2-6.7c0-4.1-0.1-6.5-0.1-7.1v0c0-0.6,0.3-1,0.9-1.1
		c1.8,0.1,3,0.3,3.6,0.6c0.6,0.3,1.2,0.8,1.8,1.4c0.6,0.6,1.1,1.3,1.3,1.9c0.3,0.7,0.4,1.6,0.4,2.5c0,0.5,0,1.1-0.1,1.8
		c-0.1,0.7-0.3,1.5-0.6,2.3c-0.3,0.9-0.9,1.8-1.8,2.6c-0.8,0.9-1.6,1.5-2.3,1.7C34.6,57.2,33.9,57.4,33.1,57.6z M33.7,43.7l0.1,12.1
		c0.6-0.1,1-0.3,1.2-0.4c0.5-0.3,1-0.7,1.4-1.1c0.8-0.8,1.4-1.7,1.6-2.8c0.3-1.1,0.4-2.1,0.4-2.9c0-0.2,0-0.4,0-0.8
		c0-0.4-0.2-0.8-0.4-1.4c-0.2-0.5-0.6-1-1.1-1.5c-1-0.8-2-1.2-3.1-1.2H33.7z"/>
	<path class="st1" d="M44.3,57.6h-0.1l-0.4-0.2c-0.4-1.4-0.6-2.9-0.7-4.4s-0.2-3-0.4-4.5c0.1-0.5,0.3-0.8,0.8-0.8h0.1l0.4,0.2
		c0.2,0.6,0.3,1.2,0.3,1.9c0,0.7,0.1,1.3,0.1,1.9c0.3-0.4,0.6-0.8,0.9-1.1c0.4-0.3,0.7-0.6,1.2-0.8s0.8-0.3,1.3-0.3
		c0.4,0,0.9,0,1.3-0.1l0.4,0.2c0.1,0.2,0.2,0.4,0.2,0.6v0.1l-0.2,0.4c-0.5,0.1-1,0.1-1.6,0.2c-1,0.1-1.8,0.9-2.4,2.3
		c-0.4,0.7-0.5,1.6-0.5,2.6l0,1.2l-0.2,0.4C44.7,57.5,44.6,57.6,44.3,57.6z"/>
	<path class="st1" d="M59.7,57.8c-0.2,0-0.4-0.1-0.6-0.2l-0.3-0.4c-0.9,0.4-1.7,0.6-2.5,0.6c-0.1,0-0.2,0-0.5,0
		c-0.3,0-0.6-0.1-1.1-0.3c-0.5-0.2-0.9-0.5-1.2-0.9c-0.6-0.6-0.9-1.3-0.9-2.4c0-0.1,0-0.4,0-0.7c0.1-0.9,0.5-1.6,1.1-2.3
		c0.6-0.6,1.4-0.9,2.3-0.9c0.6,0,1.1,0.1,1.7,0.3c0-0.5-0.2-0.9-0.5-1.1c-0.6-0.4-1.3-0.7-1.9-0.7c-0.2,0-0.4,0-0.7,0.1
		c-0.3,0.1-0.6,0.1-1,0.2l-0.5-0.2c-0.1-0.2-0.2-0.4-0.2-0.6V48l0.2-0.4c0.5-0.3,1-0.4,1.7-0.4c0.3,0,0.6,0,1,0.1
		c0.4,0.1,0.9,0.3,1.6,0.6c0.7,0.3,1.2,0.9,1.5,1.5c0.3,0.7,0.4,1.8,0.5,3.3c0,1.5,0.3,3,0.9,4.4l-0.2,0.4
		C60.1,57.7,59.9,57.7,59.7,57.8z M56.4,56.1c0.5,0,0.9-0.1,1.3-0.3l0.6-0.5c-0.1-0.5-0.2-1.3-0.2-2.5c-0.6-0.7-1.2-1-1.8-1
		c0,0-0.2,0-0.5,0c-0.3,0-0.6,0.2-0.9,0.4c-0.4,0.4-0.6,1-0.6,1.8c0,0.1,0,0.3,0,0.6c0,0.2,0.2,0.5,0.4,0.7c0.3,0.3,0.6,0.5,0.9,0.6
		C55.9,56.1,56.1,56.1,56.4,56.1z"/>
	<path class="st1" d="M66,60.4c-0.6-0.1-1-0.3-1.3-0.7c-0.6-0.6-0.9-1.3-0.9-2c0-0.1,0-0.2,0-0.5c0-0.3,0.3-0.6,0.7-1
		c0.5-0.4,1-0.7,1.5-0.9c0.5-0.2,1-0.3,1.6-0.3l0-1.1c-0.9,0.5-1.5,0.8-2,0.8c-0.1,0-0.3,0-0.5-0.1c-0.3,0-0.6-0.2-0.9-0.6
		c-0.5-0.6-0.8-1.2-0.8-1.9c0-0.2,0-0.4,0.1-0.7c0-0.3,0.2-0.8,0.4-1.3c0.2-0.5,0.5-1,0.8-1.3s0.7-0.5,1-0.6c0.1,0,0.3,0,0.4,0
		c0.2,0,0.6,0,1,0.1c0.4,0.1,1,0.5,1.9,1.2c0.2,0.3,0.2,0.7,0.2,1c0,0.2,0,0.3,0,0.4l0.1,3.7c0.2-0.1,0.4-0.1,0.6-0.1
		c0.1,0,0.3,0.1,0.6,0.2c0.1,0.2,0.2,0.4,0.2,0.6v0.1l-0.2,0.4c-0.4,0.2-0.7,0.3-1.2,0.3l0,0.6c0,0.3,0,0.7-0.1,1.1
		c-0.1,0.4-0.4,0.9-1.1,1.5S66.6,60.4,66,60.4z M65.5,52.9c0.3,0,0.6-0.1,0.8-0.2c0.4-0.3,0.7-0.6,0.8-1c0.1-0.4,0.3-0.8,0.3-1.3
		c-0.2-0.2-0.4-0.4-0.7-0.6c-0.2-0.1-0.3-0.1-0.5-0.1c-0.6,0-1,0.3-1.2,1c-0.1,0.3-0.2,0.6-0.2,0.9c0,0.1,0,0.4,0.1,0.7
		C65,52.7,65.2,52.9,65.5,52.9z M66.2,58.8c0.2,0,0.4-0.1,0.5-0.2c0.6-0.5,0.9-1.1,0.9-1.8l0-0.3c-1,0.1-1.7,0.5-2.1,1
		c-0.1,0.2-0.2,0.3-0.2,0.4c0,0.2,0.1,0.3,0.3,0.5C65.8,58.7,66,58.8,66.2,58.8z"/>
</g>
</svg>
