<svg xmlns="http://www.w3.org/2000/svg" width="160.549" height="104.121" viewBox="0 0 160.549 104.121">
  <g id="グループ_666" data-name="グループ 666" transform="translate(-560.469 -296.64)">
    <path id="パス_9013" data-name="パス 9013" d="M122.551,53c-11.832-.628-23.7-1.3-35.544-.44-21.217,1.541-43.043,5.728-61.625,16.818A83.221,83.221,0,0,0,9.45,81.676c-3.413,3.4-6.639,7.832-6.838,12.891-.585,14.881,19.394,14.7,29.076,14.458a194.07,194.07,0,0,0,27.394-2.9c11.861-2,23.582-4.99,35.476-6.69,17.177-2.454,38.165-4.064,52.2,8.459a19.41,19.41,0,0,1,6.493,11.439c2.251,14.05-12.06,26.822-22.765,32.941q-.952.545-1.923,1.057" transform="translate(558.87 245.414)" fill="none" stroke="#000" stroke-miterlimit="10" stroke-width="2"/>
    <path id="パス_9014" data-name="パス 9014" d="M228.5,212.875,229.78,214l-7.32,8.4,10.98-1.706.259,1.684L218.115,224.8Z" transform="translate(464.938 175.964)" fill="#000"/>
    <path id="パス_9015" data-name="パス 9015" d="M260.467,138.389a23.06,23.06,0,0,1,12.939,18.63,22.7,22.7,0,0,1-8.074,18.908" transform="translate(446.531 208.154)" fill="none" stroke="#000" stroke-miterlimit="10" stroke-width="2"/>
  </g>
</svg>
