<?xml version="1.0" encoding="utf-8"?>
<!-- Generator: Adobe Illustrator 24.2.0, SVG Export Plug-In . SVG Version: 6.00 Build 0)  -->
<svg version="1.1" id="_レイヤー_2" xmlns="http://www.w3.org/2000/svg" xmlns:xlink="http://www.w3.org/1999/xlink" x="0px"
	 y="0px" viewBox="0 0 248.6 40.3" style="enable-background:new 0 0 248.6 40.3;" xml:space="preserve">
<style type="text/css">
	.st0{fill:#000;}
</style>
<g>
	<path class="st0" d="M4.9,14.8l-3.2-0.2v-0.5l6.1-0.4l3.4,0.2v0.5L4.9,14.8z M5.7,33.4l-2.6-0.2v-0.5c0.6-1.8,1.4-3.6,2.2-5.3
		s1.5-3.5,2.1-5.3L6.8,22c-1.2,0.4-2.4,0.8-3.7,1.1l-2.3-0.2v-0.4c1-0.4,2-0.8,3.1-1.2C5,21,6.1,20.8,7.3,20.9l2.7,0.3
		c0.2,0.6,0.3,1.2,0.2,1.9c-0.6,1.7-1.4,3.4-2.1,5.1S6.6,31.6,6,33.3L5.7,33.4z M16.8,16.2c-1,0.1-1.8-0.1-2.5-0.6l-0.1-1.3
		c0.3-1.4,0.9-2.8,1.6-4.1c0.7-1.3,1.4-2.6,2.1-3.9L20,6.2l1.1,0.1v0.5c-0.9,1.3-1.7,2.6-2.4,4c-0.7,1.4-1.2,2.8-1.5,4.4
		c0.5,0.3,1.1,0.4,1.8,0.4v0.5L16.8,16.2z M32.6,35.1c-2.2,0-4.1-0.5-5.8-1.5c-1.7-1-3.4-2-5.2-3l-0.3,0.2l-0.4,0.8l-1.5,1.5
		L19,33.6l-1.3,1.2l-2.6,0.1l-0.6-0.1v-0.5l1.5-1.2l2-2.4l0.5-0.6l0.9-1.2l-1.7-1.5v-0.2l-0.3-0.1l-0.9-1v-0.5h2l1.2,0.3l1.3,1.2
		c0.6-0.8,1.1-1.6,1.7-2.3c0.5-0.8,0.9-1.6,1.1-2.6L23.3,22l-6.2,1.3l-2.5-0.2v-0.5c1.5-0.3,3-0.6,4.5-1s3-0.5,4.7-0.5
		c1,0,2,0.1,2.8,0.4c0.2,0.4,0.3,0.9,0.2,1.4c-0.5,1.4-1.2,2.7-2.1,3.9l-1.5,2v0.3l0.3,0.2l4.4,3.1l4.6,2.2l0.1,0.6V35.1z
		 M27.1,19.5l-2.3-0.2v-0.4c0.6-1.1,1.2-2.3,1.8-3.5c0.5-1.2,0.8-2.5,0.9-3.8L27,10.7l-0.7-0.1c-0.9,0.3-1.7,0.6-2.5,1
		s-1.7,0.5-2.7,0.4l-1.2-0.1v-0.4c0.9-0.5,1.8-0.9,2.8-1.3c1-0.3,2.1-0.5,3.1-0.6c1.6-0.1,3,0.2,4.4,0.7c0.5,0.8,0.6,1.7,0.5,2.7
		c-0.3,1.1-0.7,2.3-1.2,3.3c-0.5,1.1-1,2.1-1.6,3.1L27.1,19.5z"/>
	<path class="st0" d="M38.2,24.4L38,24.3V23c0.6-1.2,1.2-2.4,2-3.6c0.8-1.2,1.5-2.4,2.3-3.6l0.9-1.3h-0.3c-1,0.2-2.1,0.4-3.1,0.6
		c-1.1,0.1-2.2,0.2-3.3,0.1v-0.5c1.3-0.3,2.6-0.5,4-0.7s2.7-0.4,4-0.8l0.5-0.7h0.2l0.5-1l0.3-0.1l0.7-1.1l2-2.3h0.2l0.3-0.6L50.6,6
		h2.9v0.5l-1.4,1.6l-0.6,0.6h-0.2L51,9.3l-0.7,0.9l-0.9,1h-0.2l-0.5,0.9l-0.3,0.1l-0.4,1h0.7L59,12.7h6.8v0.4
		c-3.2,0.2-6.4,0.3-9.6,0.4c-3.2,0.1-6.4,0.4-9.5,0.8c-1.1,1.5-2.1,3-3.2,4.5c-1,1.5-1.9,3.1-2.5,4.8h1.3v0.5
		C41.2,24.4,39.7,24.5,38.2,24.4z M56.4,35.8v-0.4c0.5-1.2,1-2.4,1.5-3.5c0.5-1.2,0.8-2.4,1.1-3.6h-0.3c-1.7,0.2-3.3,0.5-4.9,0.7
		c-1.6,0.3-3.3,0.4-5,0.3v-0.5c1.7-0.2,3.4-0.5,5.1-0.7c1.7-0.3,3.5-0.4,5.4-0.3c0.2-0.9,0.4-1.8,0.5-2.7s0.2-1.8,0.1-2.8
		c-0.1-1-0.5-1.9-1.2-2.7c-0.5-0.5-1.1-0.7-1.7-0.7c-1.4,0.4-2.6,0.9-3.8,1.7s-2.4,1.3-3.8,1.6L49,24.5h0.5l3.1-0.8h4.3l0.5,0.4v1.1
		L57,25.8h-2.8v-0.6l0.2-0.7h-0.8c-1.5,0.7-3.1,1-4.9,0.9l-0.5,7.2h-2.8l-0.1-2c0.1-2,0.2-4,0.5-5.9s0.6-3.8,1-5.7h3v1h0.3
		c1.5-1,3.1-1.6,4.9-2h4.3l1.9,0.9l0.1,0.3l0.3,0.2c0.7,1.3,1.1,2.7,1,4.3c-0.2,2.1-0.6,4.1-1.2,6.1c-0.6,2-1.3,3.9-2.2,5.8
		L56.4,35.8z"/>
	<path class="st0" d="M72.2,18.2l-2.6-0.3v-1l1.6-2.8l1.7-2.4c0.8-0.9,1.9-2.3,3.5-4.4l0.5-0.6h0.2l2.8,0.2v0.2l-1.3,2
		c1.1,0.3,2.1,0.7,3.1,1.2s1.9,1.1,2.9,1.6v0.4l-0.4,0.1c-1.3,0.1-2.5-0.1-3.5-0.7s-2.1-1.2-3.1-1.6c-1.2,1.4-2.3,2.9-3.4,4.3
		c-1.1,1.5-1.6,2.7-1.7,3.7L72.2,18.2z M78.9,32l-2-0.1v-3.5l0.2-5.3h-0.4c-0.9,0.2-1.7,0.4-2.6,0.6c-0.9,0.2-1.8,0.2-2.8,0.2
		l-1.4-0.1v-0.5l7.2-1.6l0.1-2.2l-0.1-0.4l0.1-0.2h1.4l1.5,0.1v2h0.6l2.5-0.1l1.1,0.1v0.5l-4.2,0.9L79.8,32H78.9z M73.7,30.2
		L71.6,30c-0.7-1.1-0.9-2.3-0.7-3.8l0.1-1.1h1.3l1.7,0.1v0.6v2.3l0.1,0.7l2.4,0.1v0.5l-0.1,0.2C75.6,30.2,74.7,30.4,73.7,30.2z
		 M75.1,18l-1.8-0.1v-0.5c1.5-0.3,2.9-0.6,4.3-0.9s2.9-0.5,4.4-0.6l2.2,0.1v0.5c-1.6,0.2-3.1,0.4-4.6,0.8
		C78.1,17.7,76.6,17.9,75.1,18z M74,34.2l-2.7-0.3v-0.5h0.5l1.6,0.1c1.6-0.2,3.2-0.5,4.7-0.7c1.5-0.3,3.2-0.4,4.9-0.3l1.1,0.1v0.5
		c-1.7,0.2-3.4,0.4-5.1,0.6S75.7,34.1,74,34.2z M83.3,28.4l-2.5-0.2v-0.6l0.9-3.3h0.7l2.2,0.2v0.9l-0.8,3L83.3,28.4z M97.8,20
		l-1.3-0.3h-0.1l-2-3.1h-0.3l-2.3,1.7l-0.2,0.3h-1l-2.1-0.2v-0.3l1.3-1.1l2.2-1.8l1-0.5v-0.2l-1.7-3.1h-0.2
		c-0.9,0.2-1.9,0.3-2.9,0.3l-1.5-0.1v-0.5l3.9-0.6v-0.2L88,5.6l0.1-0.2h0.4l2.6,0.2l2.3,4l0.7,0.1l2.4-0.1l1.2,0.1v0.5l-3.6,0.6v0.4
		l0.9,1.5l0.3,0.1c0.8-0.9,1.9-1.2,3.2-0.9l1,0.1v0.2l-0.2,0.4l-0.6,0.3l-0.2,0.3l-1.9,1.4V15l2.8,4.7L97.8,20z M100.3,33.6h-2.1
		l-1-1.2l-1.7-1.8l-0.4-0.2L92,32.7l-0.8,0.6h-2.4l-0.7-0.1V33l0.2-0.4l2.6-1.9l2.5-1.9l0.6-0.4l-2.3-3.3h-0.3l-2.2,0.7l-3.2,0v-0.5
		l4.4-1.2l-1.8-2.5L88.5,21h1.4l2.1,0.1v0.4l1,1.4l0.3,0.4l2.5-0.5l1.8,0.1v-0.2c-0.3-0.5-0.6-1.1-0.6-1.6h1.6l1.3,0.1
		c0.7,1.1,1.3,2.4,1.8,3.7l-0.4,0.1l-2.6-0.2l-0.5-1.2h-0.3l-3.5,0.9v0.3l1.6,2.3l1.3-1.1l2.9,0.2v0.5L99,27.5L97.2,29l0.8,0.8
		l2.7,3.4l0.2,0.4L100.3,33.6z M96.5,7.2l-1.3-0.4l-0.4-0.3l-0.5-1l-0.4-0.3V4.6h1.2l1.7,0.1l0.7,1l0.4,0.8l0.4,0.2l0.1,0.6
		L96.5,7.2z"/>
	<path class="st0" d="M106.3,11.6v-0.5c2.1-0.4,4.2-0.9,6.3-1.3c2.1-0.4,4.3-0.6,6.6-0.6v0.5c-2.2,0.2-4.3,0.6-6.4,1.1
		C110.8,11.3,108.6,11.5,106.3,11.6z M106.9,30.5l-0.5-0.3c-0.4-0.8-0.7-1.7-0.7-2.8c0-1,0-2.1,0-3.1l0.6-4.7h2.9v0.9l-0.4,2.9h0.2
		c1.2-0.4,2.5-0.7,3.7-1.1s2.6-0.5,4-0.4c0.3-1.5,0.5-3.1,0.5-4.8l-0.6-1.5c-0.4-0.4-1-0.6-1.6-0.5c-1.6,0.4-3.1,0.9-4.5,1.6
		s-3,1-4.8,0.8V17c1.2-0.6,2.4-1.1,3.7-1.6c1.3-0.5,2.6-0.8,3.9-1.1h4.7l1.4,0.6c0.7,1.1,1,2.4,0.9,3.8l-0.6,3.4h-2.5l-0.1,0.3
		c-1.4,0.2-2.8,0.6-4.2,1.1c-1.3,0.5-2.8,0.7-4.3,0.7l-0.1,2.5c0,1,0.3,1.9,0.8,2.7l1.7,0.1V30C109.7,30.5,108.3,30.5,106.9,30.5z
		 M121.3,16.7v-0.5l1-0.9h0.2l0.1-0.3l0.7-0.4l0.2-0.3l1.2-0.8l0.2-0.3c0.9-0.7,1.9-1.4,2.9-2s2.2-0.8,3.6-0.5v0.5l-5.2,3.6
		l-0.1,0.3l-0.9,0.8l-0.8,0.6C123.5,16.7,122.4,16.7,121.3,16.7z M121.2,28.2c-0.5-1.4-0.6-2.9-0.5-4.5l0.7-5h2.8l0.1,0.7l-0.4,2.8
		h0.2c1.7-0.4,3.5-0.7,5.2-0.9c1.8-0.3,3.6-0.4,5.4-0.4v0.5c-1.9,0.2-3.7,0.5-5.4,0.9c-1.8,0.4-3.6,0.6-5.6,0.6l-0.2,3.2l0.1,0.8
		h1.4v0.4l-0.7,0.9H121.2z M128.6,33.5v-2.1l0.4-7.2h3V26l-0.5,7.5H128.6z"/>
	<path class="st0" d="M141.4,28.8l-0.7-0.8c-0.2-1.6-0.3-3.2-0.2-4.9c0.1-1.4,0.2-3,0.4-5c0.2-1.9,0.5-4.8,1-8.5h2.9V11
		c-0.5,3.4-0.8,5.9-0.9,7.5c-0.1,1.6-0.3,2.9-0.3,3.9v4.4l0.2,0.6h0.3c0.9-0.5,1.9-1,2.9-1.4s2.1-0.5,3.3-0.3v0.4
		c-1.3,0.9-2.7,1.6-4.1,2.1C144.8,28.9,143.2,29,141.4,28.8z M152,23.1v-0.2l-0.4-0.3c-0.6-1.5-0.8-3.2-0.6-5.1h3v1.1v0.5
		c0,1.5,0.3,2.9,1,4H152z M154.8,31.7c-0.2-0.3-0.3-0.6-0.2-1c1.1-2.7,2.3-5.3,3.8-7.8s3-4.9,4.7-7.3l0.3-0.1l0.4-0.7l0.3-0.1v-0.2
		h2.9V15l-1.7,2.3h-0.2c-1.4,2.2-2.6,4.3-3.8,6.4c-1.2,2.1-2.3,4.4-3.3,6.7h2.2v0.5C158.5,31.6,156.7,31.9,154.8,31.7z M166.6,29.3
		c-1.2-0.4-2.4-1-3.5-1.8l-0.1-0.3l-0.3-0.1c-0.5-0.6-0.8-1.2-0.9-1.9l2.9-0.1l0.8,1.4l2.2,1.6l1.9,0.7v0.5L166.6,29.3z"/>
	<path class="st0" d="M182.3,17.3l-1-0.1l-0.3-4c0.1-1.3,0.2-2.5,0.4-3.7s0.5-2.4,0.9-3.5h2.9v0.6L185,7.5h0.1
		c1.3-0.9,2.7-1.5,4.3-1.8c1.5-0.3,3.2-0.4,4.9-0.3c1,0.1,1.9,0.4,2.6,1.2l0.1,0.3l0.3,0.2c0.6,0.8,0.9,1.7,1,2.7s0.1,2,0,3.1
		l-0.7,3.9h-3v-0.3h-1.7c-1.7,0.1-3.5,0.3-5.2,0.6C186,17.3,184.2,17.3,182.3,17.3z M180,21.2v-0.5c2.2-0.4,4.5-0.7,6.8-0.8
		s4.7-0.3,7.1-0.5h4.4v0.5c-3.1,0.2-6.2,0.4-9.2,0.6C186.2,20.7,183.1,21,180,21.2z M179,32.3l-0.7-0.7v-1.8c0.3-1,0.6-2,1.1-2.9
		c0.4-0.9,0.9-1.9,1.4-2.8l3-0.1v0.6c-0.6,1-1.1,2-1.5,3.1c-0.5,1-0.8,2.2-0.9,3.4l0.2,0.4l0.4,0.2v0.4L179,32.3z M194.7,15.8v-0.2
		c0.4-1.5,0.7-3.1,0.7-4.8c-0.1-1.5-0.6-2.7-1.4-3.8l-0.3-0.4l-1.5-0.5c-0.9,0.3-1.8,0.7-2.7,1.1s-1.7,1-2.5,1.7l-0.1,0.2h-2.3
		l-0.3,2.5h0.2c1.1-0.4,2.3-0.7,3.5-0.8c1.2-0.1,2.5-0.1,3.8-0.1l0.8,0.3l0.1,1.3l-0.3,0.9h-3v-0.5l0.3-1.1h-0.4
		c-1.5,0.7-3.1,1-4.9,1l-0.1,2.7l0.2,1.3h0.9c1.6-0.2,3.1-0.4,4.7-0.5C191.4,15.9,193,15.8,194.7,15.8z M197.6,32.1
		c-2.4-0.1-4.9-0.3-7.2-0.8c-2.4-0.5-4.6-1.4-6.7-2.7v-0.5h3l0.9,0.5c0.1-1.1,0.1-2.3,0.1-3.5s0.1-2.3,0.3-3.4h3v0.5l-0.3,2.6h1.1
		l5.8-0.3V25l-6.9,0.5l-0.1,4h-0.8v0.2c1.9,0.7,3.8,1.2,5.9,1.4c2.1,0.2,4.2,0.3,6.4,0.4V32L197.6,32.1z"/>
	<path class="st0" d="M213.2,27.2v-0.3l-0.1-0.1v-7.1h-5.6v-0.5l5.6-0.3V15l-0.1-2.7h2.9l0.2,6.5h1.3l3.5-0.1l0.5,0.1v0.5l-5.3,0.2
		l-0.1,5.4l0.1,2.4L213.2,27.2z"/>
	<path class="st0" d="M229.6,31c-1.1-0.1-2.2-0.6-3.1-1.4c-0.7-0.9-1.2-1.8-1.4-2.9c-0.2-1-0.3-2.1-0.2-3.3c0.1-1.7,0.5-3.2,1-4.7
		c0.6-1.5,1.3-2.9,2.2-4.2l1.8-1.9h0.2l0.1-0.3c1.2-1.1,2.6-1.9,4.1-2.4s3.2-0.6,5-0.4c0.9,0.1,1.6,0.3,2.3,0.7l0.4,0.4l0.8,1.7
		l1.1,0.1c0.6,1.3,0.9,2.7,0.8,4.3c-0.3,1.9-0.8,3.7-1.4,5.4c-0.7,1.7-1.5,3.4-2.6,5l-0.3,0.1L240,28l-0.3,0.1l-0.1,0.3l-0.4,0.4
		c-1.4,1.1-2.9,1.7-4.6,2L229.6,31z M234.6,29.5c0.8-0.4,1.5-0.9,2.1-1.5l0.3-0.4h0.2c1.3-1.8,2.3-3.7,3.2-5.8
		c0.8-2,1.3-4.2,1.3-6.5l-0.3-1.5H240c-0.1-1.1-0.4-2.1-1.1-2.9l-1.5-0.4c-1.6,0.6-3,1.4-4.3,2.5l-0.1,0.2l-0.5,0.5l-0.6,0.6h-0.2
		c-1.1,1.6-2.1,3.3-2.8,5.2c-0.7,1.8-1,3.8-0.9,5.9c0.1,1.2,0.6,2.4,1.3,3.4l0.2,0.1l1.3,1.1l1.5,0.4L234.6,29.5z"/>
</g>
</svg>
