<?xml version="1.0" encoding="utf-8"?>
<!-- Generator: Adobe Illustrator 24.2.0, SVG Export Plug-In . SVG Version: 6.00 Build 0)  -->
<svg version="1.1" id="圖層_1" xmlns="http://www.w3.org/2000/svg" xmlns:xlink="http://www.w3.org/1999/xlink" x="0px" y="0px"
	 viewBox="0 0 161 163" style="enable-background:new 0 0 161 163;" xml:space="preserve">
<style type="text/css">
	.st0{fill:#000;}
</style>
<g>
	<g id="logo" transform="translate(-560 -268)">
		<g id="グループ_666">
			<g id="パス_9013">
				<path class="st0" d="M683.5,395.1l-0.7-1.4c0.5-0.3,1-0.5,1.5-0.8c14.3-8.2,18.2-18.4,17.2-24.7c-0.6-3.2-2.3-6.2-4.8-8.4
					c-10.2-9.1-25.2-8.5-39.8-6.4c-5.2,0.7-10.4,1.8-15.5,2.9c-3.9,0.8-7.9,1.6-12,2.3c-7,1.2-14.2,2-21.3,2.3
					c-5.1,0.1-15.7,0.4-20.6-4.6c-1.9-1.9-2.8-4.4-2.6-7.4c0.1-3.4,2-7,5.5-10.5c3.8-3.7,7.9-6.9,12.5-9.6
					c12.5-7.5,27.8-11.6,48-13.1c9-0.7,18.1-0.2,26.9,0.3l0.7,0l-0.1,1.5l-0.7,0c-8.7-0.5-17.8-0.9-26.7-0.3
					c-20,1.5-35,5.5-47.3,12.9c-4.4,2.6-8.5,5.8-12.2,9.4c-3.2,3.2-4.9,6.4-5.1,9.5c-0.1,2.6,0.6,4.6,2.2,6.2
					c4.5,4.5,14.6,4.3,19.5,4.2c7-0.2,14.1-1,21.1-2.2c4-0.7,8-1.5,11.9-2.3c5.1-1,10.3-2.1,15.6-2.9c15-2.1,30.3-2.8,41,6.7
					c2.8,2.4,4.6,5.7,5.3,9.3c1.7,10.8-8.6,20.9-18,26.3C684.5,394.5,684,394.8,683.5,395.1z"/>
			</g>
			<g id="パス_9014">
				<path class="st0" d="M687.8,386.7l1,0.9l-5.7,6.5l8.5-1.3l0.2,1.3l-12.1,1.9L687.8,386.7z"/>
			</g>
			<g id="パス_9015">
				<path class="st0" d="M702.6,383.6l-1-1.2c4.1-3.4,6.3-8.7,6-14c-0.5-5.9-4.2-11.2-9.6-13.8l0.7-1.4c5.8,2.8,9.8,8.6,10.4,15
					C709.5,374.2,707,379.9,702.6,383.6z"/>
			</g>
		</g>
	</g>
	<g>
		<path class="st0" d="M53.6,78l-2-0.1l0-0.4l-0.2-6.3l-1.1,0.1l-4.7,0.5l-2.2,0l0-0.4l7.9-0.8l-0.2-6.8l1.7-0.1l0.7,0.1l0.1,1.9
			l0.2,4.8l7.1-0.5l0.8,0l0,0.4l-7.9,0.5l0.2,7L53.6,78z"/>
		<path class="st0" d="M72.8,79.4c-0.9,0-1.8-0.4-2.6-0.9c-0.6-0.7-1.1-1.4-1.3-2.3c-0.2-0.8-0.3-1.7-0.4-2.6c0-1.4,0.2-2.6,0.6-3.9
			c0.4-1.2,0.9-2.4,1.6-3.5l1.4-1.7l0.2,0l0.1-0.3c0.9-0.9,2-1.6,3.2-2.1c1.2-0.5,2.6-0.7,4-0.6c0.7,0,1.3,0.2,1.9,0.5l0.4,0.3
			l0.7,1.3l0.9,0c0.5,1,0.8,2.2,0.9,3.4c-0.1,1.5-0.4,3-0.9,4.4c-0.5,1.4-1.1,2.8-1.9,4.2l-0.3,0.1L81,76.5l-0.2,0.1l-0.1,0.3
			l-0.3,0.4c-1,0.9-2.3,1.5-3.7,1.8L72.8,79.4z M76.7,77.9c0.6-0.3,1.2-0.8,1.7-1.3l0.3-0.3l0.2,0c1-1.5,1.7-3.1,2.3-4.8
			c0.6-1.7,0.8-3.4,0.7-5.3l-0.4-1.2l-1.1,0.1c-0.1-0.9-0.5-1.6-1-2.3L78,62.3c-1.2,0.6-2.4,1.3-3.3,2.2l-0.1,0.2l-0.4,0.5l-0.5,0.6
			l-0.2,0c-0.8,1.4-1.5,2.8-2,4.3c-0.5,1.5-0.6,3.1-0.5,4.8c0.2,1,0.6,1.9,1.2,2.7l0.2,0.1l1.1,0.8l1.2,0.3L76.7,77.9z"/>
		<path class="st0" d="M97.5,77.8c-1.3,0.1-2.6-0.2-3.7-0.7l0-0.2l-0.7-0.5c-0.6-0.7-0.9-1.6-1.1-2.6c-0.2-1-0.2-2-0.3-3l0.1-1.8
			l-0.4,0l-2.3,1.6l-0.1,0.2l-2.5,0.2l0-0.5c0.9-0.6,1.8-1.3,2.7-1.8c0.9-0.6,1.8-1.1,2.8-1.6c0.3-1.7,0.6-3.3,1-5
			c0.4-1.7,0.9-3.3,1.6-4.8l2.5-0.2l0,0.4c-0.6,1.3-1.1,2.6-1.4,4c-0.3,1.4-0.6,2.8-0.9,4.2l0.2,0c1.5-0.7,3-1.3,4.7-1.7
			c1.6-0.4,3.4-0.6,5.2-0.6c0.8-0.1,1.5,0.2,2.2,0.7c0.3,0.5,0.4,1.1,0.4,1.7c-0.1,0.7-0.4,1.4-0.7,2.1c-0.4,0.7-0.8,1.3-1.2,2
			l-0.5,0.6c-0.6,0.9-1.3,1.4-2.3,1.5c-1,0.2-1.9,0.2-2.9,0.2l0-0.4c0.9-0.1,1.7-0.4,2.4-1.1l0.7-0.8l0.2,0l0.6-1.2l0.2,0
			c0.7-1.1,1.1-2.3,1.2-3.6l-0.4-0.6c-0.4-0.3-0.9-0.5-1.5-0.5c-1.5,0.3-3,0.8-4.4,1.4s-2.8,1.2-4.2,1.9c-0.1,0.9-0.2,1.8-0.3,2.7
			c-0.1,0.9-0.1,1.8-0.1,2.8c0.1,1.3,0.6,2.5,1.5,3.4c0.9,0.7,2,1,3.1,1c1.3-0.2,2.5-0.5,3.6-1.1s2.4-0.8,3.8-0.7l0,0.4
			c-1.3,0.6-2.7,1.1-4.2,1.4C100.7,77.6,99.1,77.8,97.5,77.8z M104.2,61.2L104.2,61.2l-1.2-5l2.4-0.2l1.2,5L104.2,61.2z M108,63.1
			l0-0.2c-0.2-0.9-0.4-1.8-0.4-2.8s-0.2-1.9-0.5-2.7l2.4-0.2c0.2,0.9,0.4,1.9,0.5,2.9c0.1,1,0.2,1.9,0.4,2.9L108,63.1z"/>
		<path class="st0" d="M113.8,76.1L113.8,76.1c-0.5-2.2-0.9-4.3-1.1-6.4c-0.3-2.1-0.5-4.3-0.6-6.4l2.4-0.2l0.1,2.2l0.2,0
			c1.4-0.8,2.9-1.5,4.3-2.2c1.5-0.7,3-1.2,4.6-1.5l3.7-0.2l1.3,0.3l0.7,0.7c0.2,0.7,0.3,1.5,0.3,2.4c-0.2,1.2-0.4,2.4-0.7,3.6
			c-0.3,1.2-0.6,2.3-0.9,3.5l1.8-0.1l0,0.4c-2.4,0.3-4.7,0.8-7,1.4c-2.3,0.6-4.6,1.1-7,1.5l0,0.3l0.1,0.5L113.8,76.1z M125.6,72.2
			c0.4-1.4,0.8-2.9,1.2-4.3c0.4-1.5,0.5-3,0.5-4.5l-0.8-1c-0.4-0.3-0.9-0.4-1.4-0.3c-1.8,0.5-3.5,1.2-5.1,2.1
			c-1.6,0.9-3.3,1.6-5.2,2.2l0,0.6c0.1,1.3,0.3,2.6,0.5,3.8c0.2,1.3,0.4,2.5,0.6,3.7l0.4,0c1.5-0.4,3-0.8,4.6-1.2
			C122.5,72.9,124,72.6,125.6,72.2z"/>
	</g>
	<g>
		<path class="st0" d="M14.7,152.3l-0.3-0.2l-0.3-0.7v-2.8c0.1-1.1,0.3-2.2,0.5-3.3c0.2-1.1,0.5-2.1,0.8-3.1h1.8v0.4
			c-0.4,1.3-0.7,2.6-0.9,3.9c-0.2,1.3-0.3,2.7-0.4,4.1l0.1,0.8h1.5v0.3C16.7,152.3,15.8,152.5,14.7,152.3z M22.8,155v-0.3
			c0.6-2.1,1.1-4.2,1.5-6.3s0.6-4.3,0.5-6.6c-0.1-0.7-0.3-1.4-0.7-1.9c-0.3-0.3-0.7-0.4-1.2-0.4c-1,0.2-1.9,0.6-2.8,1.1
			c-0.9,0.5-1.9,0.7-3.1,0.6v-0.3c0.8-0.4,1.5-0.8,2.3-1.1s1.6-0.6,2.4-0.8h3.1l1,0.5l0.1,0.2l0.2,0.1c0.4,0.6,0.6,1.3,0.6,2.1
			c0,0.8,0,1.6,0,2.4c-0.2,1.8-0.4,3.6-0.8,5.4c-0.4,1.8-0.8,3.5-1.2,5.3H22.8z M17.2,147.9l-0.1-0.1v-0.3c0.8-0.1,1.5-0.2,2.2-0.4
			c0.7-0.2,1.4-0.4,2.1-0.5h2.7v0.3c-1.2,0-2.3,0.2-3.4,0.6C19.6,147.8,18.5,148,17.2,147.9z M17.2,145v-0.3c1-0.2,2.1-0.4,3.1-0.7
			c1-0.2,2.2-0.3,3.3-0.3l0.1,0.3c-1.1,0.1-2.1,0.4-3.2,0.6C19.5,145,18.4,145.1,17.2,145z"/>
		<path class="st0" d="M34.5,156.1v-0.3c0.5-1.4,1.2-3,2-4.7c0.8-1.8,1.5-3.3,2.2-4.7h-0.3c-0.5,0.2-1.1,0.3-1.7,0.3
			c-0.6,0-1.2,0-1.8,0v-0.3c0.9-0.2,1.9-0.3,2.8-0.5c1-0.2,1.9-0.3,2.9-0.4v-0.8l-0.1-2.9l0.1-4.1h1.9v0.9l-0.1,2.1v3l0.1,1.5h0.9
			l1-0.1h2.9v0.3c-1.2,0.1-2.3,0.2-3.5,0.3c-1.1,0.1-2.3,0.2-3.4,0.4c-0.5,1.5-1.2,3.2-2.1,5c-0.9,1.9-1.6,3.6-2.2,5H34.5z
			 M36.3,143.6l-0.3-0.1c-0.3-0.5-0.4-1-0.4-1.6c0-0.6,0-1.2,0-1.7l0.1-2.7h1.9v2l-0.1,0.1v2.8l0.1,0.4h0.2c0.7-0.1,1.4-0.2,2.1-0.1
			v0.3c-0.5,0.4-1,0.6-1.6,0.7C37.6,143.6,37,143.6,36.3,143.6z M43.9,154c-0.5,0-0.9-0.2-1.3-0.5c-0.6-0.8-0.9-1.8-0.7-3
			c0.2-1.1,0.5-2.2,0.9-3.2h1.8v0.4c-0.2,0.6-0.4,1.3-0.6,2c-0.2,0.7-0.3,1.4-0.2,2.1c0.1,0.5,0.3,1,0.8,1.4l0.7,0.3
			c1-0.2,2-0.5,2.9-0.9c0.9-0.4,1.9-0.6,3-0.5v0.3c-1.1,0.5-2.2,0.9-3.4,1.2C46.5,154,45.3,154.1,43.9,154z M44.9,144.1v-0.3l1.7-5
			h1.9v0.3l-1.8,5H44.9z"/>
		<path class="st0" d="M56.5,153.6v-0.4l-0.1-1.3v-3.6h-0.1l-1.3,1.5h-1.8v-0.3l0.4-0.5h0.1l0.2-0.4l0.7-0.7h0.1l1.4-1.5l1.9-1.7
			h0.1l0.1-0.2c0.7-0.5,1.5-0.6,2.5-0.5v0.4l-1.3,0.9l-0.1,0.2l-1.1,0.9l-0.1,0.2l-0.5,0.6h0.5v5.1l0.1,1.5H56.5z M70.9,153.8v-0.2
			c-0.3-0.6-0.5-1.3-0.6-1.9c-0.2-0.6-0.3-1.3-0.4-2h-0.3c-1.4,0.8-2.9,1.6-4.4,2.4c-1.5,0.8-3.1,1.1-4.9,1l-0.5-0.1
			c-0.2-0.4-0.3-0.9-0.2-1.5c0.2-0.9,0.5-1.8,0.8-2.7c0.3-0.9,0.7-1.8,1.1-2.6h1.8v0.5c-0.4,0.9-0.9,1.9-1.2,2.8
			c-0.4,0.9-0.6,1.9-0.7,3h0.1l2.9-1.3c0.1-1.9,0.3-4,0.5-6.5c0.2-2.4,0.4-4.6,0.6-6.4h1.8v1c-0.1,1.5-0.3,3.3-0.5,5.3
			c-0.2,2.1-0.3,3.9-0.4,5.4h0.2l1.9-1.2l0.1-0.1l0.9-0.8h1.9c0.1,1,0.3,2,0.5,3c0.2,1,0.5,1.9,0.7,2.9H70.9z"/>
		<path class="st0" d="M82.7,154.6v-0.3c0.6-0.6,1.1-1.2,1.5-1.9h0.1c0.4-0.8,0.9-1.5,1.3-2.3c0.4-0.8,0.7-1.6,0.9-2.4h-0.1
			c-1.6,0.3-3.2,0.7-4.8,1.2c-1.6,0.5-3.2,0.8-4.9,0.8v-0.3c1.6-0.4,3.2-0.9,4.8-1.3c1.6-0.4,3.3-0.8,5-1.1v-0.3l-0.3-0.6l-0.3-0.2
			v-0.1l-1-0.3c-0.9,0.3-1.9,0.4-2.9,0.3l-0.1-0.4l0.8-0.6h0.1l0.1-0.2l0.8-0.7h0.1l0.1-0.2l0.9-0.9H85l0.5-0.7l0.5-0.5l0.9-1.1
			l0.1-0.5l-0.3-0.5l-0.7-0.1c-1.3,0.3-2.5,0.7-3.7,1.2c-1.2,0.5-2.3,1.2-3.4,1.9l-0.1,0.1l-2.1,0.1v-0.3c1.6-1,3.2-1.9,4.9-2.6
			c1.7-0.7,3.6-1,5.5-0.9l1.4,0.3v0.1l0.2,0.1l0.1,0.9c-0.1,0.5-0.4,0.9-0.7,1.3l-0.5,0.6h-0.1l-0.2,0.4l-1.3,1.3l-0.4,0.2l-0.1,0.2
			l-0.9,0.7v0.1c1.1-0.1,2.1,0,3,0.4l0.1,0.2l0.2,0.1l0.5,0.8l0.4,0.1c0.7-0.1,1.3-0.2,2-0.3s1.4-0.1,2.2,0v0.3l-4.6,0.7
			c-0.1,1.3-0.5,2.4-1.2,3.4c-0.6,1-1.3,2.1-2,3.1l-0.4,0.5l-0.3,0.3H82.7z"/>
		<path class="st0" d="M99.1,153.9l-1.6-0.1v-0.3c0.4-1.1,0.9-2.2,1.4-3.3s0.9-2.1,1.3-3.3l-0.4-0.1c-0.8,0.3-1.5,0.5-2.3,0.7
			l-1.4-0.1v-0.3c0.6-0.3,1.3-0.5,1.9-0.7c0.7-0.2,1.4-0.3,2.1-0.2l1.7,0.2c0.1,0.4,0.2,0.7,0.1,1.2c-0.4,1.1-0.9,2.1-1.3,3.2
			s-0.9,2.1-1.3,3.2H99.1z M98.7,142.4l-2-0.1v-0.3l3.8-0.3l2.1,0.1v0.3L98.7,142.4z M106.1,143.3c-0.6,0-1.1-0.1-1.5-0.4l-0.1-0.8
			c0.2-0.9,0.6-1.7,1-2.6s0.9-1.6,1.3-2.4l1.3-0.1l0.7,0.1v0.3c-0.5,0.8-1,1.6-1.5,2.5s-0.8,1.8-0.9,2.7c0.3,0.2,0.7,0.3,1.1,0.3
			v0.3L106.1,143.3z M115.8,155.1c-1.3,0-2.5-0.3-3.6-0.9c-1.1-0.6-2.1-1.3-3.2-1.9l-0.2,0.1l-0.3,0.5l-0.9,0.9l-0.3,0.3l-0.8,0.7
			l-1.6,0.1l-0.4-0.1v-0.3l1-0.7l1.3-1.5l0.3-0.4l0.5-0.8l-1-0.9v-0.1l-0.2-0.1l-0.5-0.6v-0.3h1.2l0.7,0.2l0.8,0.7
			c0.3-0.5,0.7-1,1-1.4c0.3-0.5,0.6-1,0.7-1.6l-0.3-0.1l-3.8,0.8l-1.5-0.1v-0.3c0.9-0.2,1.9-0.4,2.8-0.6c0.9-0.2,1.9-0.3,2.9-0.3
			c0.6,0,1.2,0.1,1.8,0.3c0.1,0.3,0.2,0.6,0.1,0.9c-0.3,0.9-0.8,1.7-1.3,2.4l-0.9,1.2v0.2l0.2,0.1l2.7,1.9l2.8,1.4V155.1
			L115.8,155.1z M112.4,145.4l-1.4-0.1V145c0.4-0.7,0.8-1.4,1.1-2.2c0.3-0.7,0.5-1.5,0.6-2.4l-0.3-0.5l-0.5-0.1
			c-0.5,0.2-1.1,0.4-1.6,0.6c-0.5,0.2-1.1,0.3-1.7,0.2l-0.8-0.1v-0.3c0.5-0.3,1.1-0.6,1.8-0.8c0.6-0.2,1.3-0.3,1.9-0.4
			c1,0,1.9,0.1,2.7,0.5c0.3,0.5,0.4,1.1,0.3,1.7c-0.2,0.7-0.4,1.4-0.7,2.1c-0.3,0.7-0.6,1.3-1,1.9H112.4z"/>
		<path class="st0" d="M119.3,148.5l-0.1-0.1v-0.8c0.3-0.8,0.8-1.5,1.2-2.2c0.5-0.7,1-1.5,1.4-2.2l0.5-0.8h-0.2
			c-0.6,0.1-1.3,0.3-1.9,0.3c-0.7,0.1-1.4,0.1-2.1,0.1v-0.3c0.8-0.2,1.6-0.3,2.5-0.4s1.7-0.2,2.5-0.5l0.3-0.5h0.1l0.3-0.6l0.2-0.1
			l0.4-0.7l1.3-1.4h0.1l0.2-0.4l0.9-0.9h1.8v0.3l-0.9,1l-0.4,0.4h-0.1l-0.2,0.4l-0.5,0.5l-0.5,0.6h-0.1l-0.3,0.6l-0.2,0.1l-0.3,0.6
			h0.5l6.5-0.3h4.2v0.3c-2,0.1-3.9,0.2-5.9,0.2c-2,0.1-4,0.2-5.9,0.4c-0.7,0.9-1.3,1.8-2,2.8c-0.6,0.9-1.2,1.9-1.6,2.9h0.8v0.3
			C121.2,148.5,120.3,148.6,119.3,148.5z M130.6,155.6v-0.3c0.3-0.7,0.6-1.5,0.9-2.2c0.3-0.7,0.5-1.5,0.7-2.2H132
			c-1,0.1-2.1,0.3-3.1,0.4c-1,0.2-2,0.2-3.1,0.2v-0.3c1.1-0.1,2.1-0.3,3.2-0.4s2.2-0.2,3.3-0.2c0.1-0.5,0.3-1.1,0.3-1.7
			c0.1-0.6,0.1-1.1,0.1-1.7c-0.1-0.6-0.3-1.2-0.7-1.7c-0.3-0.3-0.7-0.5-1.1-0.5c-0.9,0.2-1.6,0.6-2.4,1c-0.7,0.5-1.5,0.8-2.4,1
			l-0.3,1.4h0.3l1.9-0.5h2.7l0.3,0.3v0.7l-0.3,0.4h-1.8V149l0.1-0.4h-0.5c-0.9,0.4-2,0.6-3.1,0.5l-0.3,4.5h-1.8l-0.1-1.2
			c0-1.2,0.2-2.5,0.4-3.6s0.4-2.4,0.6-3.5h1.9v0.6h0.2c0.9-0.6,2-1,3.1-1.2h2.7l1.2,0.5l0.1,0.2l0.2,0.1c0.4,0.8,0.6,1.7,0.6,2.7
			c-0.1,1.3-0.4,2.6-0.8,3.8c-0.4,1.2-0.8,2.4-1.4,3.6L130.6,155.6z"/>
		<path class="st0" d="M140.5,144.8l-1.6-0.2V144l1-1.8l1.1-1.5c0.5-0.5,1.2-1.4,2.2-2.7l0.3-0.4h0.1l1.8,0.1v0.1l-0.8,1.2
			c0.7,0.2,1.3,0.4,1.9,0.8s1.2,0.7,1.8,1v0.3l-0.3,0.1c-0.8,0.1-1.5-0.1-2.2-0.5c-0.6-0.4-1.3-0.7-1.9-1c-0.7,0.9-1.4,1.8-2.1,2.7
			s-1,1.7-1.1,2.3H140.5z M144.6,153.4l-1.2-0.1v-2.2l0.1-3.3h-0.3c-0.5,0.1-1.1,0.3-1.6,0.4s-1.1,0.1-1.7,0.1l-0.9-0.1v-0.3
			l4.5-0.9l0.1-1.3l-0.1-0.3l0.1-0.1h0.9l0.9,0.1v1.2h0.4l1.5-0.1l0.7,0.1v0.3l-2.6,0.5l-0.2,6H144.6z M141.4,152.2l-1.3-0.1
			c-0.4-0.7-0.5-1.5-0.4-2.3l0.1-0.7h0.8l1.1,0.1v0.4l-0.1,1.4l0.1,0.5l1.5,0.1v0.3l-0.1,0.1C142.6,152.2,142,152.3,141.4,152.2z
			 M141.5,154.7l-1.7-0.2v-0.3h0.3l1,0.1c1-0.1,2-0.3,2.9-0.4s2-0.2,3.1-0.2l0.7,0.1v0.3c-1.1,0.1-2.1,0.2-3.1,0.4
			C143.6,154.6,142.6,154.7,141.5,154.7z M142.2,144.6l-1.1-0.1v-0.3c0.9-0.2,1.8-0.4,2.7-0.5s1.8-0.3,2.7-0.3l1.4,0.1v0.3
			c-1,0.1-1.9,0.3-2.9,0.5S143.2,144.6,142.2,144.6z M147.3,151.1l-1.5-0.1v-0.4l0.5-2h0.5l1.3,0.1v0.5l-0.5,1.9H147.3z
			 M157.9,154.4l-1.3,0l-0.6-0.7l-1.1-1.1l-0.3-0.1l-1.9,1.4l-0.5,0.4h-1.5l-0.5-0.1V154l0.1-0.3l1.6-1.2l1.5-1.2l0.4-0.3l-1.4-2
			h-0.2l-1.4,0.4l-1.9-0.1v-0.3l2.8-0.7l-1.1-1.5l-0.1-0.4h0.9l1.3,0.1l0,0.3l0.6,0.9l0.2,0.3l1.5-0.3l1.1,0.1v-0.1
			c-0.2-0.3-0.3-0.7-0.4-1h1l0.8,0.1c0.4,0.7,0.8,1.5,1.1,2.3l-0.3,0.1l-1.6-0.1l-0.3-0.7h-0.2l-2.2,0.5v0.2l1,1.4l0.8-0.7l1.8,0.1
			v0.3l-0.8,0.5l-1.1,0.9l0.5,0.5l1.7,2.2l0.1,0.3H157.9z M156.3,146l-0.8-0.2h-0.1l-1.2-1.9h-0.2l-1.4,1.1l-0.1,0.2h-0.6l-1.3-0.1
			v-0.2l0.8-0.7l1.4-1.1l0.6-0.3v-0.1l-1.1-1.9h-0.1c-0.6,0.1-1.2,0.2-1.8,0.1l-0.9-0.1v-0.3l2.4-0.3v-0.1l-1.5-2.8l0.1-0.1h0.3
			l1.6,0.1l1.4,2.5l0.5,0.1l1.5-0.1l0.7,0.1v0.3l-2.2,0.3v0.3l0.5,0.9l0.2,0.1c0.5-0.5,1.2-0.7,2-0.5l0.6,0.1v0.1l-0.1,0.3l-0.4,0.2
			l-0.1,0.2l-1.2,0.9v0.3l1.7,2.9L156.3,146z M155.6,138.1l-0.8-0.3l-0.3-0.2l-0.3-0.6l-0.3-0.2v-0.4h0.8l1.1,0.1l0.5,0.6l0.3,0.5
			l0.3,0.1l0.1,0.4H155.6z"/>
	</g>
	<g>
		<path class="st0" d="M4.6,44.6l-2,0.3l-0.1-0.3l3.6-1l2.1-0.3l0.1,0.3L4.6,44.6z M7.5,55.8L5.9,56l-0.1-0.3
			c0.2-1.2,0.4-2.4,0.7-3.5c0.3-1.1,0.5-2.3,0.6-3.5l-0.4,0c-0.7,0.4-1.4,0.8-2.1,1.1l-1.4,0.2l-0.1-0.3c0.5-0.4,1.1-0.8,1.7-1.1
			c0.6-0.3,1.3-0.6,2-0.7l1.7-0.2C8.8,48.2,9,48.5,9,48.9c-0.2,1.1-0.4,2.3-0.6,3.4s-0.5,2.3-0.6,3.4L7.5,55.8z M12,44
			c-0.6,0.2-1.1,0.2-1.6-0.1l-0.2-0.8c0-0.9,0.2-1.8,0.4-2.7c0.3-0.9,0.5-1.8,0.8-2.6l1.2-0.4l0.7-0.1l0.1,0.3
			c-0.4,0.9-0.7,1.8-0.9,2.7s-0.4,1.9-0.3,2.8c0.4,0.1,0.7,0.1,1.1,0l0.1,0.3L12,44z M24.1,53.4c-1.3,0.3-2.5,0.2-3.7-0.2
			c-1.2-0.4-2.3-0.8-3.5-1.2l-0.2,0.2l-0.2,0.5l-0.7,1.1l-0.2,0.3L15,55.1l-1.6,0.4l-0.4,0l-0.1-0.3l0.8-0.9l0.9-1.7l0.2-0.5
			l0.4-0.9l-1.2-0.7l0-0.1l-0.2,0L13.2,50l-0.1-0.3l1.2-0.3l0.8,0l1,0.5c0.2-0.6,0.5-1.1,0.7-1.6c0.2-0.5,0.3-1.1,0.3-1.7l-0.4-0.1
			l-3.6,1.6l-1.5,0.2L11.6,48c0.9-0.4,1.8-0.8,2.6-1.2s1.8-0.7,2.8-0.9c0.6-0.1,1.2-0.2,1.8-0.1c0.2,0.2,0.3,0.5,0.3,0.8
			c-0.1,0.9-0.4,1.8-0.8,2.6l-0.7,1.4l0,0.2l0.2,0.1l3.1,1.3l3,0.7L24.1,53.4L24.1,53.4z M18.7,44.6l-1.4,0.2l-0.1-0.3
			c0.2-0.8,0.5-1.6,0.6-2.4c0.2-0.8,0.2-1.6,0-2.5l-0.4-0.5l-0.5,0c-0.5,0.3-1,0.6-1.4,1c-0.4,0.3-1,0.5-1.6,0.6l-0.8,0.1l-0.1-0.2
			c0.5-0.4,1-0.8,1.5-1.1c0.6-0.3,1.2-0.6,1.8-0.8c0.9-0.2,1.9-0.3,2.8-0.1c0.4,0.4,0.6,1,0.6,1.6c0,0.7-0.1,1.5-0.3,2.2
			c-0.2,0.7-0.3,1.4-0.6,2.1L18.7,44.6z"/>
		<path class="st0" d="M26.1,46.2l-0.1,0l-0.2-0.8c0.2-0.8,0.4-1.6,0.7-2.5c0.3-0.8,0.6-1.6,0.9-2.5l0.4-0.9l-0.2,0
			c-0.6,0.3-1.2,0.5-1.8,0.7c-0.6,0.2-1.3,0.4-2,0.5l-0.1-0.3c0.7-0.3,1.5-0.7,2.3-0.9s1.6-0.6,2.3-1l0.2-0.5l0.1,0l0.2-0.7l0.2-0.1
			l0.3-0.7l0.9-1.7l0.1,0l0.1-0.4l0.7-1L33,33l0.1,0.3l-0.6,1.2L32.1,35L32,35l-0.1,0.4l-0.3,0.6l-0.4,0.7l-0.1,0l-0.2,0.6l-0.2,0.1
			l-0.1,0.7l0.4-0.1l6.3-1.7l4.1-0.9l0.1,0.2c-1.9,0.5-3.8,1-5.8,1.5c-1.9,0.5-3.8,1-5.7,1.7c-0.5,1-0.9,2.1-1.3,3.1
			c-0.4,1.1-0.7,2.1-0.9,3.2l0.8-0.2l0.1,0.3C27.9,45.8,27.1,46,26.1,46.2z M38.7,50.8l-0.1-0.2c0.2-0.8,0.3-1.6,0.4-2.3
			c0.1-0.8,0.2-1.6,0.2-2.3l-0.2,0c-1,0.3-1.9,0.7-2.9,1.1c-0.9,0.4-1.9,0.7-3,0.8l-0.1-0.3c1-0.4,2-0.7,3-1.1
			c1-0.4,2.1-0.7,3.2-0.9c0-0.6,0-1.1,0-1.7c0-0.6-0.1-1.1-0.3-1.7c-0.2-0.6-0.6-1.1-1.1-1.5c-0.4-0.2-0.8-0.3-1.1-0.2
			c-0.8,0.4-1.5,0.9-2.1,1.5c-0.6,0.6-1.3,1.1-2.1,1.5l0,1.4l0.3-0.1l1.8-0.9l2.6-0.6l0.4,0.2l0.1,0.7l-0.2,0.4L36,45L36,44.6
			l0.1-0.4l-0.5,0.1c-0.8,0.6-1.8,1-2.9,1.2l0.6,4.5l-1.7,0.4l-0.3-1.2c-0.2-1.2-0.4-2.4-0.4-3.6c-0.1-1.2-0.1-2.4-0.1-3.6l1.8-0.4
			l0.1,0.6l0.2,0c0.8-0.8,1.7-1.4,2.7-1.8l2.6-0.6l1.3,0.3l0.1,0.2l0.2,0.1c0.6,0.7,1,1.5,1.2,2.5c0.1,1.3,0.2,2.6,0.1,3.9
			c-0.1,1.3-0.3,2.6-0.6,3.8L38.7,50.8z"/>
		<path class="st0" d="M46,38l-1.6,0.2l-0.1-0.6l0.6-1.9l0.8-1.7c0.3-0.6,0.9-1.7,1.6-3.1l0.2-0.5l0.1,0l1.7-0.2l0,0.1l-0.5,1.4
			c0.7,0,1.4,0.1,2,0.3c0.7,0.2,1.3,0.4,2,0.6l0.1,0.3L52.6,33c-0.8,0.3-1.5,0.3-2.2,0c-0.7-0.2-1.4-0.4-2.1-0.6c-0.5,1-1,2-1.5,3.1
			c-0.5,1-0.6,1.8-0.5,2.5L46,38z M51.8,45.6l-1.2,0.2l-0.5-2.1l-0.6-3.2l-0.3,0.1c-0.5,0.3-1,0.5-1.5,0.7c-0.5,0.2-1.1,0.4-1.7,0.5
			l-0.9,0.1l-0.1-0.3l4.2-1.9l-0.2-1.3L49.1,38l0-0.1l0.9-0.2l0.9-0.1l0.3,1.2l0.4-0.1l1.5-0.4l0.7-0.1l0.1,0.3l-2.4,1.1l1.1,5.9
			L51.8,45.6z M48.4,45.1l-1.3,0.1c-0.5-0.6-0.8-1.3-0.9-2.2l-0.1-0.7l0.8-0.2l1.1-0.2l0.1,0.4l0.2,1.3l0.2,0.4L50,44l0.1,0.3
			L50,44.5C49.6,44.9,49.1,45.1,48.4,45.1z M47.7,37.5l-1.1,0.2l-0.1-0.3c0.8-0.4,1.7-0.7,2.5-1.1c0.8-0.4,1.7-0.7,2.6-0.9l1.3-0.2
			l0.1,0.3c-0.9,0.3-1.8,0.7-2.7,1.1C49.5,37,48.6,37.3,47.7,37.5z M49.1,47.5l-1.7,0.2l-0.1-0.3l0.3-0.1l1-0.2
			c0.9-0.3,1.9-0.7,2.8-1.1c0.9-0.4,1.9-0.6,2.9-0.8l0.7-0.1l0.1,0.3c-1,0.3-2,0.7-3,1S50.2,47.3,49.1,47.5z M54.1,42.8L52.5,43
			l-0.1-0.4l0.1-2.1l0.5-0.1l1.3-0.1l0.1,0.5l-0.1,1.9L54.1,42.8z M61.7,35.8l-0.8,0l-0.1,0l-1.6-1.6l-0.2,0l-1.2,1.3l-0.1,0.2
			L57.2,36L56,36.1l0-0.2l0.7-0.8l1.1-1.4l0.5-0.5l0-0.1l-1.5-1.7l-0.1,0c-0.5,0.3-1.1,0.4-1.7,0.5l-0.9,0.1l-0.1-0.3l2.3-0.8l0-0.1
			L54,28.3l0-0.1l0.3-0.1l1.6-0.2l1.9,2.1l0.5,0l1.4-0.4l0.7-0.1l0.1,0.3l-2.1,0.8l0.1,0.3l0.7,0.8l0.2,0c0.4-0.6,1-1,1.8-1l0.6,0
			l0,0.1l-0.1,0.3l-0.3,0.3l-0.1,0.2l-1,1.1l0.1,0.3l2.3,2.5L61.7,35.8z M65.1,43.8L63.8,44l-0.7-0.6l-1.3-0.9l-0.3-0.1l-1.6,1.8
			l-0.4,0.5l-1.5,0.3l-0.5,0l0-0.1l0.1-0.3l1.3-1.5l1.3-1.5l0.3-0.3l-1.8-1.7l-0.2,0l-1.2,0.7l-1.9,0.3l-0.1-0.3l2.5-1.3L56.4,38
			l-0.1-0.4l0.9-0.2l1.3-0.2l0.1,0.3l0.8,0.7l0.2,0.2l1.5-0.6l1.1-0.2l0-0.1c-0.3-0.3-0.5-0.6-0.6-0.9l1-0.2l0.8-0.1
			c0.6,0.6,1.1,1.3,1.6,2l-0.2,0.1l-1.6,0.2L62.4,38l-0.2,0l-2,1l0,0.2l1.3,1.2l0.7-0.9l1.8-0.3l0.1,0.3l-0.6,0.6l-0.9,1.1l0.6,0.4
			l2.1,1.7l0.2,0.2L65.1,43.8z M59.3,28.3l-0.9-0.1L58.2,28l-0.5-0.5l-0.3-0.1L57.3,27l0.7-0.2l1.1-0.2l0.6,0.5l0.4,0.4l0.3,0.1
			l0.1,0.4L59.3,28.3z"/>
		<path class="st0" d="M65.9,29.6l-0.1-0.3c1.2-0.5,2.4-1.1,3.7-1.6c1.2-0.5,2.6-0.9,4-1.2l0.1,0.3c-1.3,0.4-2.5,0.9-3.7,1.5
			C68.6,28.9,67.3,29.3,65.9,29.6z M68.6,41l-0.4-0.1c-0.4-0.4-0.6-1-0.8-1.6c-0.1-0.6-0.3-1.3-0.4-1.9l-0.2-2.9l1.8-0.4l0.1,0.5
			l0.1,1.8l0.1,0c0.7-0.4,1.4-0.8,2.1-1.1s1.5-0.6,2.4-0.8c0-1-0.1-2-0.3-3l-0.6-0.8c-0.3-0.2-0.7-0.3-1.1-0.1
			c-0.9,0.4-1.8,1-2.5,1.6c-0.8,0.6-1.7,1-2.8,1.1l-0.1-0.3c0.7-0.5,1.3-1,2.1-1.4c0.7-0.5,1.5-0.8,2.3-1.2l2.9-0.6l0.9,0.2
			c0.6,0.6,0.9,1.3,1,2.2l0.1,2.2l-1.5,0.3l0,0.2c-0.8,0.3-1.6,0.7-2.4,1.2c-0.7,0.5-1.6,0.8-2.5,1l0.3,1.5c0.1,0.6,0.4,1.1,0.8,1.6
			l1.1-0.2l0.1,0.3C70.4,40.7,69.5,40.9,68.6,41z M75.6,30.8l-0.1-0.3l0.5-0.7l0.1,0l0-0.2l0.4-0.4l0.1-0.2l0.6-0.6l0.1-0.2
			c0.5-0.6,1-1.1,1.5-1.6c0.5-0.5,1.2-0.8,2.1-0.8l0.1,0.3L78.4,29l0,0.2l-0.4,0.6l-0.4,0.5C77,30.5,76.3,30.7,75.6,30.8z M77,37.8
			c-0.5-0.8-0.7-1.7-0.9-2.7L75.9,32l1.7-0.4l0.2,0.4l0.1,1.8l0.1,0c1-0.4,2-0.9,3.1-1.2c1-0.4,2.1-0.7,3.3-0.9l0.1,0.3
			c-1.1,0.4-2.2,0.8-3.2,1.3c-1,0.5-2.1,0.8-3.3,1.1l0.3,2l0.2,0.5l0.8-0.2l0.1,0.2L79,37.4L77,37.8z M82.2,40.1L82,38.8l-0.7-4.5
			l1.8-0.4l0.2,1.1l0.7,4.6L82.2,40.1z"/>
		<path class="st0" d="M89.4,35.6l-0.5-0.4c-0.3-0.9-0.6-1.9-0.8-3c-0.1-0.8-0.3-1.9-0.4-3.1s-0.3-3-0.5-5.3l1.8-0.4l0.2,0.9
			c0.1,2.1,0.3,3.7,0.4,4.7c0.1,1,0.2,1.8,0.3,2.4l0.6,2.7l0.2,0.4l0.2,0c0.5-0.4,1-0.8,1.6-1.2c0.6-0.4,1.2-0.6,2-0.6l0.1,0.3
			c-0.7,0.7-1.4,1.3-2.2,1.8C91.5,35.2,90.5,35.5,89.4,35.6z M95.1,30.8l0-0.1l-0.3-0.2c-0.6-0.8-0.9-1.8-1-3l1.8-0.4l0.1,0.7l0,0.3
			c0.2,0.9,0.6,1.7,1.1,2.3L95.1,30.8z M97.9,35.6c-0.2-0.1-0.3-0.3-0.3-0.6c0.3-1.8,0.7-3.5,1.3-5.2c0.6-1.7,1.2-3.4,1.9-5l0.2-0.1
			l0.1-0.5l0.2-0.1l0-0.1l1.8-0.4l0.1,0.3l-0.8,1.6l-0.1,0c-0.5,1.5-1,3-1.5,4.4c-0.5,1.5-0.8,2.9-1.2,4.5l1.3-0.3l0.1,0.3
			C100.2,35.1,99.1,35.5,97.9,35.6z M104.8,32.6c-0.8-0.1-1.6-0.3-2.3-0.6l-0.1-0.2l-0.2,0c-0.4-0.3-0.6-0.6-0.8-1.1l1.8-0.4
			l0.6,0.8l1.5,0.7l1.3,0.2l0.1,0.3L104.8,32.6z"/>
		<path class="st0" d="M112.8,23.3l-0.6,0.1l-0.7-2.4c-0.1-0.8-0.2-1.6-0.2-2.3c0-0.8,0-1.5,0.1-2.3l1.8-0.4l0.1,0.4l0,0.6l0.1,0
			c0.7-0.7,1.5-1.3,2.4-1.6c0.9-0.4,1.9-0.7,2.9-0.8c0.6-0.1,1.2,0,1.7,0.4l0.1,0.2l0.2,0.1c0.4,0.4,0.8,0.9,0.9,1.5
			c0.2,0.6,0.3,1.2,0.4,1.9L122,21l-1.8,0.4l0-0.2l-1,0.2c-1,0.3-2.1,0.6-3.1,1C115,22.8,113.9,23.1,112.8,23.3z M111.9,26l-0.1-0.3
			c1.3-0.5,2.7-1,4.1-1.4c1.4-0.4,2.8-0.8,4.2-1.2l2.7-0.6l0.1,0.3c-1.9,0.5-3.7,1-5.5,1.6C115.6,24.9,113.8,25.5,111.9,26z
			 M112.7,32.9l-0.5-0.4l-0.2-1.1c0-0.7,0.1-1.3,0.3-1.9s0.3-1.3,0.5-1.9l1.8-0.5l0.1,0.4c-0.2,0.7-0.4,1.4-0.5,2.1
			c-0.1,0.7-0.2,1.4-0.1,2.2l0.2,0.2l0.3,0.1l0.1,0.3L112.7,32.9z M120.1,20.8l0-0.1c0.1-1,0-2-0.2-3c-0.2-0.9-0.7-1.6-1.4-2.1
			l-0.3-0.2l-1-0.1c-0.5,0.3-1,0.6-1.5,1c-0.5,0.4-0.9,0.8-1.3,1.3l0,0.1l-1.4,0.3l0.1,1.6l0.1,0c0.6-0.4,1.3-0.7,2-1
			c0.7-0.2,1.5-0.4,2.3-0.5l0.5,0.1l0.2,0.8l-0.1,0.6l-1.8,0.4l-0.1-0.3l0-0.7l-0.3,0.1c-0.8,0.6-1.8,1-2.9,1.2l0.3,1.6l0.3,0.8
			l0.5-0.1c0.9-0.3,1.9-0.7,2.8-0.9C118.1,21.3,119.1,21.1,120.1,20.8z M124,30.4c-1.5,0.3-3,0.4-4.5,0.5c-1.5,0-3-0.2-4.4-0.8
			l-0.1-0.3l1.8-0.4l0.6,0.2c-0.1-0.7-0.2-1.4-0.4-2.1c-0.2-0.7-0.2-1.4-0.3-2.1l1.8-0.4l0.1,0.3l0.2,1.6l0.7-0.1l3.5-0.9l0.1,0.3
			l-4.1,1.2l0.4,2.5l-0.5,0.1l0,0.1c1.2,0.2,2.5,0.2,3.8,0.1c1.3-0.1,2.6-0.3,3.9-0.6l0.1,0.3L124,30.4z"/>
		<path class="st0" d="M132.8,25.4l0-0.2l-0.1,0l-0.9-4.3l-3.4,0.7l-0.1-0.3l3.4-0.9l-0.5-2.3l-0.4-1.6l1.8-0.4l1,3.9l0.8-0.2
			l2.1-0.5l0.3,0l0.1,0.3l-3.2,0.8l0.7,3.3l0.4,1.4L132.8,25.4z"/>
		<path class="st0" d="M143.3,25.6c-0.7,0.1-1.4-0.1-2.1-0.4c-0.6-0.4-1-1-1.2-1.6s-0.5-1.3-0.6-2c-0.1-1-0.1-2,0-3
			c0.2-1,0.4-1.9,0.8-2.8l0.9-1.4l0.1,0l0-0.2c0.6-0.8,1.3-1.5,2.2-2s1.9-0.8,3-0.9c0.5-0.1,1,0,1.5,0.1l0.3,0.2l0.7,0.9l0.7-0.1
			c0.5,0.7,0.9,1.5,1,2.5c0.1,1.2,0,2.3-0.2,3.5c-0.2,1.1-0.5,2.3-0.9,3.4l-0.2,0.1l-0.2,0.5l-0.2,0.1l0,0.2l-0.2,0.3
			c-0.7,0.8-1.5,1.4-2.6,1.8L143.3,25.6z M146.1,24c0.4-0.3,0.8-0.7,1.1-1.2l0.2-0.3l0.1,0c0.5-1.3,0.9-2.6,1.2-3.9
			c0.2-1.3,0.2-2.7,0-4.1l-0.4-0.9l-0.9,0.2c-0.2-0.6-0.5-1.2-1-1.6l-1-0.1c-0.9,0.6-1.6,1.3-2.3,2.1l0,0.2l-0.3,0.4l-0.3,0.5
			l-0.1,0c-0.5,1.1-0.8,2.3-1,3.5c-0.2,1.2-0.1,2.4,0.2,3.7c0.2,0.7,0.7,1.4,1.2,1.9l0.2,0l0.9,0.5l1,0.1L146.1,24z"/>
	</g>
	<g>
		<path class="st0" d="M32.6,123c-0.9,0.2-1.8,0.2-2.6,0.1c-0.8-0.1-1.6-0.4-2.3-0.9l-1.5-1.1l0-0.2l-0.3,0c-1-0.9-1.9-1.8-2.7-2.8
			c-0.8-1-1.2-2.2-1.4-3.6c-0.1-1.1,0.3-2.1,1-3.1l0.3-0.4c0.5-0.5,1.2-0.8,2-0.9c0.8-0.1,1.6-0.2,2.4-0.2c0.8,0,1.5,0.3,2.2,0.8
			l0.1,0.2l0.3,0.1l0.6,0.5l0.5,0.7l0.3,0c0.4-0.5,0.9-1,1.5-1.5c0.8-0.6,1.7-1,2.7-1.2c1.5-0.4,2.9-0.3,4.2,0.3
			c0.4,0.7,0.7,1.4,0.7,2.4c-0.1,0.9-0.3,1.8-0.7,2.6c-0.4,0.9-0.8,1.7-1.3,2.5l-1.2,1.6l-0.2,0l0,0.3l-1.3,1.4l-1.6,1.6L32.6,123z
			 M31.8,121.7l2-2l1.2-1.1l0.1-0.3l0.4-0.6l0.2,0l0.7-1.3l0.3-0.1c0.4-0.8,0.7-1.6,1-2.4c0.3-0.8,0.4-1.6,0.3-2.5
			c-0.1-0.5-0.4-0.9-0.7-1.2l-0.7-0.1c-1.1,0.6-2,1.3-2.9,2.3c-0.5,0.7-0.9,1.4-1.2,2.2l-0.1,0.4l-0.3,0l-2,0.1
			c-0.4-1.3-1.1-2.4-2.1-3.4l-0.3,0l-1.5-1l-0.2,0c-0.7,0.5-1.2,1.2-1.5,2c-0.2,0.7-0.3,1.5-0.1,2.4c0.2,0.8,0.6,1.5,1.1,2.1
			c0.5,0.6,1,1.3,1.5,1.9l0.8,0.7l0,0.2l0.3,0.1l0.8,0.8l0.6,0.2l0.9,0.6l0,0.2l1,0.3L31.8,121.7z"/>
		<path class="st0" d="M46.5,103.8l2.3-0.3l2.7,18.1l-2.3,0.3L46.5,103.8z"/>
		<path class="st0" d="M53.5,100.1l1.6-0.2l4.1,27.6l-1.6,0.2L53.5,100.1z"/>
		<path class="st0" d="M60.1,99.1l1.6-0.2l4.1,27.6l-1.6,0.2L60.1,99.1z"/>
		<path class="st0" d="M67.1,100.8l2.3-0.3l2.7,18.1l-2.3,0.3L67.1,100.8z"/>
		<path class="st0" d="M74.4,99.7l2.3-0.3l2.7,18.1l-2.3,0.3L74.4,99.7z"/>
		<path class="st0" d="M81.6,98.6l2.3-0.3l2.7,18.1l-2.3,0.3L81.6,98.6z"/>
		<path class="st0" d="M88.6,94.9l1.6-0.2l4.1,27.6l-1.6,0.2L88.6,94.9z"/>
		<path class="st0" d="M95.2,94l1.6-0.2l4.1,27.6l-1.6,0.2L95.2,94z"/>
		<path class="st0" d="M102.2,95.6l2.3-0.3l2.7,18.1l-2.3,0.3L102.2,95.6z"/>
		<path class="st0" d="M109.2,91.9l1.6-0.2l4.1,27.6l-1.6,0.2L109.2,91.9z"/>
	</g>
</g>
</svg>
