<?xml version="1.0" encoding="utf-8"?>
<!-- Generator: Adobe Illustrator 24.2.0, SVG Export Plug-In . SVG Version: 6.00 Build 0)  -->
<svg version="1.1" id="_レイヤー_2" xmlns="http://www.w3.org/2000/svg" xmlns:xlink="http://www.w3.org/1999/xlink" x="0px"
	 y="0px" viewBox="0 0 438 72" style="enable-background:new 0 0 438 72;" xml:space="preserve">
<style type="text/css">
	.st0{fill:#000;}
</style>
<g>
	<path class="st0" d="M1.8,54.4l-1-0.6l-1-2.2v-8.4c0.4-3.4,0.8-6.7,1.4-9.9c0.5-3.2,1.4-6.3,2.5-9.5h5.5v1.3
		C7.9,28.9,7,32.9,6.4,36.9c-0.6,4.1-1,8.2-1.1,12.4l0.4,2.4h4.5v1C7.9,54.4,5.1,55,1.8,54.4z M26.2,62.5v-0.8
		c1.8-6.3,3.3-12.6,4.5-19.1c1.2-6.5,1.8-13.2,1.6-20c-0.3-2.2-1-4.1-2.2-5.9c-0.9-0.9-2.2-1.3-3.7-1.2c-3,0.7-5.8,1.8-8.5,3.5
		c-2.7,1.6-5.8,2.2-9.3,1.8v-1c2.3-1.2,4.6-2.3,6.9-3.4c2.3-1,4.8-1.8,7.4-2.3h9.5l3.1,1.5l0.2,0.6l0.6,0.4c1.1,1.9,1.7,4,1.7,6.4
		c0.1,2.4,0.1,4.8,0.1,7.2c-0.5,5.6-1.3,11-2.4,16.4c-1.1,5.3-2.3,10.7-3.7,15.9H26.2z M9.4,41l-0.4-0.2v-1c2.3-0.3,4.6-0.7,6.7-1.3
		c2.2-0.6,4.3-1.1,6.5-1.5h8.1v1c-3.6,0.1-7.1,0.7-10.3,1.8C16.7,40.9,13.2,41.3,9.4,41z M9.4,32.2v-1c3.1-0.7,6.3-1.4,9.4-2
		c3.2-0.7,6.5-0.9,10.1-0.8l0.2,1c-3.3,0.4-6.5,1.1-9.7,2C16.2,32.2,12.9,32.5,9.4,32.2z"/>
	<path class="st0" d="M61.7,65.8v-1c1.6-4.2,3.6-9,6.1-14.3c2.4-5.4,4.6-10.1,6.5-14.1h-0.8c-1.6,0.5-3.3,0.9-5,1
		c-1.7,0.1-3.5,0.1-5.4,0v-1c2.8-0.6,5.7-1.1,8.6-1.5c2.9-0.5,5.9-0.8,8.9-1.1v-2.4l-0.4-8.7l0.4-12.4h5.7v2.7l-0.4,6.5v9l0.3,4.7
		h2.8l3.1-0.4h8.9v0.8c-3.5,0.3-7,0.5-10.5,0.9c-3.4,0.3-6.9,0.7-10.3,1.1c-1.6,4.5-3.7,9.6-6.4,15.2c-2.7,5.7-4.9,10.8-6.7,15.2
		H61.7z M67.2,28l-1-0.4c-0.8-1.5-1.2-3.1-1.2-4.9c0-1.8,0-3.5,0-5.3l0.2-8.2h5.7v6.1l-0.2,0.3v8.5l0.2,1.3h0.6
		c2.1-0.4,4.2-0.6,6.3-0.4v0.8c-1.5,1.2-3.1,1.9-5,2.2C71,28.1,69.1,28.2,67.2,28z M90.2,59.5c-1.5-0.1-2.9-0.6-4.1-1.4
		c-1.9-2.4-2.6-5.4-2.1-9c0.5-3.4,1.4-6.6,2.7-9.8h5.5v1.2c-0.7,1.9-1.3,3.9-1.8,5.9c-0.6,2-0.8,4.2-0.6,6.5
		c0.2,1.6,0.9,3.1,2.3,4.3l2,0.8c3.1-0.6,6-1.4,8.7-2.7c2.7-1.2,5.7-1.7,9.1-1.5v1c-3.3,1.6-6.7,2.9-10.3,3.7
		C98.1,59.5,94.3,59.8,90.2,59.5z M93.1,29.4v-1l5.1-15.3h5.7v1l-5.3,15.3H93.1z"/>
	<path class="st0" d="M128.3,58.3v-1.2l-0.4-3.9v-11h-0.4l-3.9,4.5h-5.5v-1l1.3-1.6h0.4l0.6-1.2l2.2-2.2h0.4l4.1-4.5l5.9-5.3h0.4
		l0.4-0.6c2-1.5,4.5-2,7.5-1.5v1.1l-4.1,2.8l-0.2,0.6l-3.2,2.7l-0.3,0.6l-1.6,1.8h1.6v15.5l0.4,4.5H128.3z M172,58.9v-0.6
		c-0.8-1.9-1.4-3.8-1.9-5.8c-0.5-2-0.9-4-1.1-6h-0.8c-4.4,2.4-8.8,4.9-13.2,7.2c-4.5,2.4-9.4,3.4-14.8,3.1l-1.4-0.4
		c-0.7-1.3-0.9-2.8-0.6-4.5c0.7-2.8,1.5-5.6,2.5-8.3c1-2.7,2.1-5.3,3.4-7.9h5.5v1.4c-1.4,2.8-2.6,5.7-3.7,8.5
		c-1.1,2.9-1.8,5.9-2,9.2h0.4l8.7-4.1c0.4-5.7,0.9-12.2,1.5-19.6c0.6-7.4,1.2-13.8,1.7-19.4h5.4v3c-0.4,4.5-0.9,9.9-1.5,16.2
		c-0.6,6.3-0.9,11.8-1.1,16.4h0.6l5.9-3.5l0.3-0.4l2.6-2.5h5.7c0.3,3.1,0.8,6.2,1.5,9.2c0.7,3,1.4,5.9,2.2,8.8H172z"/>
	<path class="st0" d="M207.7,61.3v-1c1.7-1.8,3.2-3.7,4.4-5.7h0.4c1.3-2.3,2.7-4.6,4-6.9c1.3-2.3,2.2-4.7,2.7-7.3h-0.4
		c-4.9,0.9-9.7,2.2-14.4,3.7c-4.8,1.6-9.7,2.3-14.9,2.3v-1c4.9-1.4,9.7-2.7,14.6-4c4.9-1.3,9.9-2.4,15-3.2v-0.8l-1-1.8l-0.8-0.6
		v-0.4l-3.1-0.8c-2.7,0.8-5.6,1.1-8.7,0.8l-0.2-1.3l2.3-1.8h0.4l0.2-0.6l2.5-2h0.4l0.2-0.6l2.9-2.7h0.4l1.6-2.2l1.5-1.6l2.7-3.4
		l0.4-1.6l-1-1.4l-2.2-0.4c-3.9,0.8-7.7,2.1-11.2,3.7c-3.5,1.6-7,3.5-10.4,5.7l-0.2,0.4l-6.3,0.3v-1c4.7-3.1,9.7-5.7,14.9-7.8
		c5.2-2,10.8-2.9,16.8-2.6l4.3,1v0.4l0.6,0.2l0.4,2.7c-0.4,1.5-1.1,2.9-2,4.1l-1.6,1.8h-0.4l-0.6,1.3l-3.9,3.9l-1.2,0.6l-0.2,0.6
		l-2.7,2v0.4c3.3-0.4,6.2,0,8.9,1.3l0.2,0.6l0.6,0.2l1.4,2.5l1.3,0.2c2-0.4,4.1-0.7,6.2-0.9c2.1-0.2,4.3-0.3,6.6-0.1v1l-13.8,2
		c-0.4,3.8-1.6,7.3-3.5,10.4c-1.9,3.1-3.9,6.3-6.1,9.4l-1.3,1.4l-1,1H207.7z"/>
	<path class="st0" d="M257.5,59.3l-4.9-0.4v-1c1.2-3.4,2.6-6.7,4.2-9.9s2.9-6.5,3.9-9.9l-1.2-0.2c-2.3,0.8-4.6,1.5-6.9,2l-4.2-0.4
		v-0.8c1.9-0.8,3.8-1.5,5.9-2.1c2-0.6,4.2-0.9,6.5-0.7l5.1,0.6c0.4,1.1,0.5,2.3,0.4,3.5c-1.2,3.3-2.6,6.5-4.1,9.7
		c-1.5,3.2-2.8,6.4-4,9.7H257.5z M256.1,24.3l-6-0.4v-1l11.4-0.8l6.3,0.4v1L256.1,24.3z M278.4,27.2c-1.9,0.1-3.5-0.3-4.7-1.2
		l-0.2-2.5c0.7-2.7,1.7-5.3,3-7.7s2.7-4.9,4.1-7.3l3.9-0.3l2,0.3v1c-1.6,2.4-3.1,4.9-4.5,7.5c-1.4,2.6-2.3,5.3-2.9,8.2
		c1,0.5,2.1,0.8,3.3,0.8v1L278.4,27.2z M307.9,63c-4.1,0-7.7-0.9-10.9-2.8c-3.2-1.9-6.4-3.8-9.7-5.7l-0.6,0.4l-0.8,1.5l-2.9,2.9
		l-0.8,0.8l-2.5,2.2l-4.9,0.2l-1.2-0.2v-1l3-2.2l3.9-4.5l1-1.2l1.6-2.3l-3.1-2.9v-0.4l-0.6-0.2l-1.6-1.8v-1h3.7l2.2,0.6l2.5,2.2
		c1.1-1.5,2.1-2.9,3.1-4.4c1-1.4,1.7-3,2.1-4.8l-1-0.4L279,40.3l-4.7-0.4v-1c2.9-0.6,5.7-1.2,8.5-1.8c2.8-0.7,5.7-1,8.8-0.8
		c1.9,0,3.7,0.3,5.3,0.8c0.4,0.8,0.5,1.7,0.4,2.7c-0.9,2.6-2.3,5-4.1,7.3l-2.9,3.7v0.6l0.6,0.4l8.3,5.9l8.6,4.1l0.2,1.2H307.9z
		 M297.8,33.4l-4.3-0.4v-0.8c1.2-2.2,2.3-4.3,3.4-6.6c1-2.2,1.6-4.6,1.7-7.2l-1-1.6l-1.4-0.2c-1.6,0.6-3.2,1.2-4.8,1.9
		c-1.5,0.7-3.3,1-5.2,0.7l-2.3-0.3v-0.8c1.6-1,3.4-1.8,5.3-2.4c1.9-0.6,3.9-1,5.9-1.1c3-0.1,5.7,0.3,8.3,1.4
		c0.8,1.5,1.1,3.2,0.8,5.1c-0.6,2.2-1.3,4.2-2.3,6.3c-0.9,2-2,4-3,5.9H297.8z"/>
	<path class="st0" d="M318.7,42.8l-0.4-0.2v-2.5c1.1-2.3,2.3-4.5,3.7-6.8c1.4-2.2,2.9-4.5,4.4-6.7l1.6-2.4h-0.6
		c-1.9,0.4-3.9,0.8-5.9,1c-2,0.3-4.1,0.3-6.3,0.2v-1c2.4-0.5,4.9-1,7.5-1.2c2.6-0.3,5.1-0.8,7.5-1.4l1-1.4h0.4l1-1.8l0.6-0.2l1.3-2
		l3.9-4.3h0.4l0.6-1.2l2.6-2.7h5.5v1l-2.7,3.1l-1.2,1.2h-0.4l-0.6,1.2l-1.4,1.6l-1.6,1.8h-0.4l-1,1.8l-0.6,0.3l-0.8,1.8h1.4l19.8-1
		h12.8v0.8c-6,0.3-12,0.5-18,0.7c-6,0.2-12,0.6-17.8,1.3c-2,2.7-4,5.5-6,8.4c-2,2.8-3.6,5.8-4.8,8.9h2.4v1
		C324.2,42.9,321.5,43.1,318.7,42.8z M352.8,64.5v-0.8c1-2.2,1.9-4.4,2.8-6.7c0.9-2.2,1.6-4.5,2.2-6.8h-0.6
		c-3.1,0.4-6.2,0.8-9.3,1.3c-3,0.5-6.2,0.7-9.4,0.5v-1c3.3-0.4,6.5-0.9,9.6-1.3c3.2-0.5,6.5-0.6,10.1-0.5c0.4-1.6,0.8-3.3,1-5
		c0.3-1.7,0.3-3.4,0.2-5.2c-0.3-1.9-1-3.6-2.2-5.1c-1-0.9-2-1.4-3.2-1.4c-2.6,0.7-5,1.7-7.1,3.1c-2.2,1.4-4.6,2.4-7.1,2.9l-0.8,4.2
		h1l5.9-1.4h8.2l1,0.8v2l-0.8,1.2h-5.3v-1.2l0.4-1.3h-1.5c-2.8,1.2-5.9,1.8-9.3,1.6l-1,13.6h-5.3l-0.2-3.7c0.1-3.8,0.5-7.4,1.1-11.1
		c0.6-3.6,1.3-7.2,1.9-10.7h5.7v1.8h0.6c2.8-1.8,5.9-3,9.3-3.7h8.2l3.6,1.6l0.3,0.6l0.6,0.4c1.4,2.5,2,5.2,1.8,8.1
		c-0.4,3.9-1.2,7.8-2.3,11.5c-1.1,3.7-2.5,7.4-4.2,10.9L352.8,64.5z"/>
	<path class="st0" d="M382.7,31.6l-4.9-0.6v-1.8l3-5.3l3.3-4.4c1.4-1.6,3.7-4.4,6.7-8.2l1-1.2h0.4l5.3,0.4v0.4l-2.5,3.7
		c2,0.5,4,1.3,5.8,2.3c1.8,1,3.6,2,5.4,3.1v0.8l-0.8,0.3c-2.5,0.3-4.6-0.2-6.5-1.4c-1.9-1.2-3.9-2.2-5.9-3.1
		c-2.2,2.7-4.4,5.4-6.4,8.1c-2,2.7-3.1,5-3.2,6.9H382.7z M395.1,57.6l-3.7-0.2v-6.5l0.4-9.9h-0.8c-1.6,0.4-3.3,0.8-4.9,1.1
		c-1.6,0.3-3.4,0.4-5.3,0.3l-2.6-0.3v-1l13.6-2.8l0.2-4.1l-0.2-0.8l0.2-0.4h2.7l2.9,0.2v3.7h1.2l4.7-0.2l2,0.2v1l-7.9,1.6L397,57.6
		H395.1z M385.4,54.2l-3.9-0.4c-1.2-2-1.6-4.4-1.2-7.1l0.2-2h2.5l3.2,0.2V46l-0.2,4.1l0.2,1.4l4.5,0.2v1l-0.3,0.4
		C389,54.1,387.3,54.5,385.4,54.2z M385.8,61.8l-5.1-0.6v-1h1l3,0.2c3-0.4,6-0.9,8.9-1.3s6-0.6,9.2-0.5l2,0.2v1
		c-3.3,0.3-6.4,0.7-9.5,1.1C392.3,61.3,389.1,61.6,385.8,61.8z M388.1,31.2l-3.3-0.2v-1c2.7-0.6,5.5-1.1,8.2-1.6
		c2.7-0.6,5.5-0.9,8.3-1l4.1,0.2v1c-3,0.3-5.9,0.8-8.7,1.5C393.9,30.7,391,31.1,388.1,31.2z M403.5,50.9l-4.7-0.4v-1.2l1.6-6.1h1.4
		l4.1,0.4v1.6l-1.6,5.6H403.5z M435.4,60.9l-3.9-0.1l-1.8-2.2l-3.2-3.4l-0.8-0.4l-5.9,4.3l-1.5,1.2h-4.5l-1.4-0.2v-0.4l0.4-0.8
		l4.9-3.5l4.7-3.5l1.1-0.8l-4.3-6.1h-0.6l-4.1,1.3l-5.8-0.3v-1l8.4-2.2l-3.3-4.7l-0.2-1.2h2.7l3.9,0.2l0.1,0.8l1.8,2.7l0.5,0.8
		l4.7-0.8l3.3,0.2v-0.4c-0.6-1-1-2-1.2-3h3l2.5,0.3c1.4,2.2,2.5,4.5,3.4,6.9l-0.8,0.2l-4.9-0.4l-1-2.2h-0.6l-6.5,1.6v0.6l3.1,4.4
		l2.5-2.1l5.4,0.4v1l-2.3,1.5l-3.4,2.7l1.5,1.5l5.1,6.5l0.4,0.8H435.4z M430.8,35.3l-2.5-0.6h-0.2l-3.7-5.9h-0.6l-4.3,3.2l-0.4,0.6
		h-1.8l-3.9-0.4v-0.6l2.5-2l4.2-3.4l1.8-1v-0.4l-3.2-5.9h-0.4c-1.8,0.4-3.6,0.6-5.5,0.4L410,19v-1l7.4-1v-0.4L412.6,8l0.2-0.4h0.8
		l4.9,0.3l4.3,7.6l1.4,0.2l4.5-0.2l2.2,0.2v1l-6.7,1v0.8l1.6,2.9l0.6,0.2c1.6-1.6,3.6-2.2,6.1-1.6l1.8,0.3v0.4l-0.4,0.8l-1.2,0.6
		l-0.4,0.6l-3.7,2.7v0.8l5.3,8.9L430.8,35.3z M428.5,11.3l-2.5-0.8l-0.8-0.6l-1-1.8l-0.8-0.6V6.2h2.3l3.2,0.2l1.4,1.8l0.8,1.5
		l0.8,0.4l0.2,1.2H428.5z"/>
</g>
</svg>
