<?xml version="1.0" encoding="utf-8"?>
<!-- Generator: Adobe Illustrator 24.2.0, SVG Export Plug-In . SVG Version: 6.00 Build 0)  -->
<svg version="1.1" id="_レイヤー_2" xmlns="http://www.w3.org/2000/svg" xmlns:xlink="http://www.w3.org/1999/xlink" x="0px"
	 y="0px" viewBox="0 0 305.7 67.5" style="enable-background:new 0 0 305.7 67.5;" xml:space="preserve">
<style type="text/css">
	.st0{fill:#000;}
</style>
<g>
	<path class="st0" d="M57.4,63.4l-5.8-0.2L51.5,62L51,43.7l-3.1,0.2l-13.5,1.5l-6.3-0.1L28,44l22.8-2.2l-0.6-19.5L55,22l2,0.2
		l0.4,5.5l0.5,13.9l20.4-1.4l2.3,0.1l0.1,1.3L58,43l0.6,20.3L57.4,63.4z"/>
	<path class="st0" d="M112.6,67.4c-2.7-0.1-5.2-1-7.5-2.7c-1.8-1.9-3-4.1-3.7-6.5c-0.7-2.4-1-4.9-1-7.6c0.1-3.9,0.6-7.6,1.8-11.1
		c1.1-3.5,2.7-6.9,4.6-10.1l4-4.8l0.5,0l0.3-0.8c2.7-2.7,5.7-4.7,9.3-6.1c3.5-1.3,7.4-1.9,11.6-1.6c2,0,3.9,0.5,5.4,1.4l1.1,0.9
		l2,3.9l2.5,0.1c1.6,2.9,2.4,6.2,2.5,9.9c-0.4,4.4-1.2,8.7-2.6,12.8c-1.3,4.2-3.1,8.2-5.4,12l-0.8,0.3l-0.9,1.9l-0.7,0.3l-0.3,0.8
		l-0.9,1.1c-3,2.7-6.5,4.5-10.5,5.2L112.6,67.4z M124,63.1c1.8-1,3.4-2.2,4.8-3.9l0.7-1l0.5,0c2.7-4.4,4.9-9.1,6.6-13.9
		c1.6-4.8,2.3-9.9,2.1-15.3l-1-3.5l-3.3,0.2c-0.3-2.5-1.3-4.7-3-6.6l-3.6-0.8c-3.6,1.6-6.8,3.8-9.6,6.5l-0.2,0.6l-1.2,1.3l-1.4,1.6
		l-0.5,0c-2.4,3.9-4.3,8-5.7,12.4c-1.4,4.4-1.8,9-1.4,13.8c0.5,2.9,1.7,5.4,3.5,7.6l0.6,0.2l3.1,2.3l3.6,0.8L124,63.1z"/>
	<path class="st0" d="M183.7,62.9c-3.9,0.3-7.4-0.4-10.5-2.1l0-0.5l-2.1-1.4c-1.7-2.1-2.7-4.6-3.2-7.4c-0.5-2.8-0.7-5.7-0.7-8.6
		l0.4-5.3l-1,0.1l-6.5,4.7l-0.2,0.6l-7.1,0.5l-0.1-1.6c2.6-1.9,5.2-3.6,7.8-5.3c2.6-1.7,5.2-3.2,8-4.6c0.8-4.8,1.8-9.6,2.9-14.4
		c1.1-4.8,2.6-9.4,4.5-13.9l7.1-0.5l0.1,1.3c-1.8,3.6-3.2,7.5-4.1,11.5c-0.9,4-1.8,8-2.7,12l0.7,0c4.3-2.1,8.8-3.8,13.5-4.9
		c4.7-1.2,9.7-1.8,14.9-1.8c2.4-0.2,4.4,0.5,6.2,2.1c0.8,1.5,1.2,3.1,1.1,5c-0.4,2.1-1.1,4.1-2.2,6c-1,1.9-2.2,3.9-3.4,5.8l-1.5,1.8
		c-1.7,2.5-3.9,3.9-6.6,4.4c-2.8,0.4-5.5,0.7-8.4,0.7l-0.1-1.3c2.7-0.2,4.9-1.3,6.8-3.3l1.9-2.4l0.5,0l1.7-3.3l0.5,0
		c1.9-3.2,3-6.6,3.3-10.4l-1.1-1.7c-1.2-0.9-2.7-1.4-4.4-1.5c-4.3,1-8.6,2.3-12.6,4c-4.1,1.7-8.1,3.5-12,5.5
		c-0.4,2.5-0.6,5.1-0.8,7.8c-0.2,2.6-0.2,5.3-0.2,8c0.3,3.9,1.7,7.1,4.4,9.8c2.7,2,5.7,3,9,2.9c3.7-0.6,7.2-1.6,10.4-3.1
		c3.3-1.5,6.9-2.2,11-2.2l0.1,1.3c-3.8,1.8-7.8,3.2-12.1,4.1C193,62.2,188.5,62.8,183.7,62.9z M203.1,15.1l0-0.2l-3.5-14.2l7.1-0.5
		l3.5,14.4L203.1,15.1z M214,20.7l0-0.7c-0.6-2.5-1.1-5.2-1.2-7.9s-0.6-5.4-1.3-7.9l7.1-0.5c0.7,2.7,1.2,5.4,1.3,8.3
		c0.2,2.8,0.6,5.6,1.3,8.2L214,20.7z"/>
	<path class="st0" d="M230.9,58l0-0.2c-1.4-6-2.5-12-3.2-18.1c-0.8-6.1-1.3-12.2-1.7-18.5l7.1-0.5l0.4,6.3l0.5,0
		c4.1-2.3,8.3-4.4,12.5-6.3c4.2-2,8.7-3.4,13.3-4.4l10.6-0.7l3.8,1l2,2.2c0.6,2.1,0.9,4.5,0.9,7c-0.4,3.5-1.1,7-1.9,10.3
		c-0.9,3.3-1.7,6.7-2.5,10.1l5.1-0.3l0.1,1.3c-6.9,0.8-13.6,2.2-20.1,4c-6.5,1.9-13.2,3.3-20,4.3l0.1,0.8l0.3,1.5L230.9,58z
		 M264.8,46.9c1.2-4.1,2.4-8.3,3.5-12.5c1.1-4.2,1.5-8.6,1.4-13.1l-2.2-2.9c-1.3-0.9-2.7-1.2-4.1-0.7c-5.3,1.4-10.2,3.4-14.8,6.1
		c-4.6,2.6-9.6,4.8-14.9,6.3l0.1,1.7c0.4,3.7,0.9,7.4,1.4,11.1c0.5,3.7,1.1,7.3,1.8,10.8l1.3-0.1c4.3-1.1,8.7-2.3,13.2-3.4
		C255.8,48.8,260.3,47.8,264.8,46.9z"/>
</g>
</svg>
