<?xml version="1.0" encoding="utf-8"?>
<!-- Generator: Adobe Illustrator 24.2.0, SVG Export Plug-In . SVG Version: 6.00 Build 0)  -->
<svg version="1.1" id="_レイヤー_2" xmlns="http://www.w3.org/2000/svg" xmlns:xlink="http://www.w3.org/1999/xlink" x="0px"
	 y="0px" viewBox="0 0 331.4 67.5" style="enable-background:new 0 0 331.4 67.5;" xml:space="preserve">
<style type="text/css">
	.st0{fill:#000;}
</style>
<g>
	<path class="st0" d="M77.3,46c-2,0.1-3.8-0.1-5.6-0.6c-1.7-0.5-3.3-1.4-4.6-2.7l-2.8-2.8l0-0.3l-0.5-0.2c-1.9-2.1-3.5-4.4-4.8-6.8
		c-1.3-2.4-1.9-5.1-1.8-8.1c0.2-2.4,1.2-4.4,2.9-6.1l0.8-0.8c1.2-0.9,2.7-1.3,4.5-1.3c1.7,0,3.4,0.1,5,0.3c1.6,0.2,3,1,4.3,2.4
		l0.2,0.5l0.6,0.2l1.1,1.3l0.9,1.7l0.6,0c1-1,2.2-1.9,3.5-2.6c1.8-1,3.8-1.6,6-1.7c3.3-0.4,6.2,0.3,8.7,2c0.7,1.5,1,3.2,0.7,5.2
		c-0.5,1.9-1.2,3.6-2.3,5.3c-1.1,1.7-2.2,3.3-3.4,5l-2.9,3l-0.4,0l-0.2,0.6l-3.2,2.4l-3.9,2.8L77.3,46z M76,43.2l4.8-3.5l2.8-2
		l0.2-0.6l1.1-1.1l0.3,0l1.8-2.6l0.6-0.2c1-1.5,1.9-3.1,2.8-4.7c0.9-1.6,1.3-3.3,1.5-5.2c-0.1-1-0.5-1.9-1.1-2.8l-1.5-0.3
		c-2.5,0.9-4.7,2.2-6.7,3.9c-1.3,1.3-2.4,2.7-3.1,4.3l-0.2,0.8l-0.7,0l-4.3-0.3c-0.5-2.9-1.6-5.5-3.4-7.8l-0.6-0.2l-2.8-2.6l-0.5,0
		c-1.6,0.9-2.9,2.1-3.7,3.7c-0.7,1.5-1,3.1-0.9,5c0.3,1.7,0.8,3.3,1.6,4.8c0.8,1.5,1.7,3,2.7,4.4l1.5,1.7l0,0.3l0.6,0.2l1.5,2
		l1.1,0.6l1.7,1.4l0,0.4l2.1,0.9L76,43.2z"/>
	<path class="st0" d="M112.4,9.9l5,0l0.2,38.9l-5,0L112.4,9.9z"/>
	<path class="st0" d="M128.1,4.3l3.4,0l0.2,59.3l-3.4,0L128.1,4.3z"/>
	<path class="st0" d="M142.4,4.3l3.4,0l0.2,59.3l-3.4,0L142.4,4.3z"/>
	<path class="st0" d="M156.6,9.8l4.9,0l0.2,38.9l-5,0L156.6,9.8z"/>
	<path class="st0" d="M172.2,9.7l5,0l0.2,38.9l-5,0L172.2,9.7z"/>
	<path class="st0" d="M187.7,9.6l5,0l0.2,38.9l-5,0L187.7,9.6z"/>
	<path class="st0" d="M203.4,4l3.4,0l0.2,59.3l-3.4,0L203.4,4z"/>
	<path class="st0" d="M217.7,4l3.4,0l0.2,59.3l-3.4,0L217.7,4z"/>
	<path class="st0" d="M231.9,9.5l5,0l0.2,38.9l-5,0L231.9,9.5z"/>
	<path class="st0" d="M247.6,3.9l3.4,0l0.2,59.3l-3.4,0L247.6,3.9z"/>
</g>
</svg>
