<svg id="logo" xmlns="http://www.w3.org/2000/svg" width="60" height="16" viewBox="0 0 60 16">
  <g id="_225d7093-7adb-4d3f-8212-640bfe56a7db" data-name="225d7093-7adb-4d3f-8212-640bfe56a7db" transform="translate(0 0)">
    <path id="パス_7570" data-name="パス 7570" d="M57.214,28.427c-.183.183-.367.367-.55.183-.183,0-.367-.183-.367-.917V22.928a2.88,2.88,0,0,0-1.1-2.75,6.161,6.161,0,0,0-3.483-.733c-1.65,0-4.949.733-4.949,2.75a1.481,1.481,0,0,0,1.65,1.283,1.7,1.7,0,0,0,1.833-1.283h0c.367-.917.733-1.283,1.65-1.283.733,0,1.283.183,1.283,1.833v.917c0,.183,0,.183-.183.183-2.75.367-6.783,1.283-6.783,4.216a3.106,3.106,0,0,0,3.3,2.933,7.834,7.834,0,0,0,3.666-1.1h.183a.18.18,0,0,1,.183.183,2.016,2.016,0,0,0,1.833,1.1,2.549,2.549,0,0,0,2.566-1.466,1.064,1.064,0,0,0,0-1.283C57.764,27.877,57.58,28.061,57.214,28.427Zm-4.033-.367a3.382,3.382,0,0,1-2.2.917c-.733,0-1.466-.367-1.466-1.1,0-1.1,1.833-2.016,3.483-2.383h0c.183,0,.183,0,.183.183A5.215,5.215,0,0,1,53.181,28.061Z" transform="translate(-31.133 -15.182)"/>
    <path id="パス_7571" data-name="パス 7571" d="M20.164,2.367a1.968,1.968,0,0,0-1.1-.962,4.5,4.5,0,0,0-1.466,0,8.952,8.952,0,0,0-.917.16,11.211,11.211,0,0,1-2.383,0,10.411,10.411,0,0,1-2.2-.321S6.783.283,6.416.283C2.383-.359.733.123.183,1.405h0c0,.16-.183.321-.183.481v.481A2.106,2.106,0,0,0,.367,3.49,5.7,5.7,0,0,0,4.4,5.253a10.135,10.135,0,0,0,3.116,0,5.443,5.443,0,0,0,2.566-.481V8.941A8.026,8.026,0,0,1,9.9,11.025s-.183,1.443-.183,2.245,0,1.443.55,1.924A2.127,2.127,0,0,0,12.1,16a1.585,1.585,0,0,0,1.467-.962c.367-.962-.183-2.886-.183-4.169S13.2,9.1,13.2,8.3V6.215c0-.962,0-1.6.733-1.924.917-.321,1.1-.16,2.2,0,1.65.16,2.933.321,3.85-.8C20.348,2.848,20.348,2.528,20.164,2.367ZM7.7,3.65c-1.283.321-3.116.481-3.3-.8,0-1.283,2.2-.962,3.3-.8a13.346,13.346,0,0,1,2.75.8,8.813,8.813,0,0,1-2.75.8Z" transform="translate(0 0)"/>
    <path id="パス_7572" data-name="パス 7572" d="M152.85,18.9A5.908,5.908,0,0,0,146.8,24.58a5.914,5.914,0,0,0,6.049,5.683A6.037,6.037,0,0,0,158.9,24.58,5.908,5.908,0,0,0,152.85,18.9Zm0,10.082c-2.2,0-2.566-2.933-2.566-4.216s.55-4.216,2.566-4.216c2.2,0,2.566,2.933,2.566,4.216C155.416,25.864,155.05,28.98,152.85,28.98Z" transform="translate(-98.899 -14.818)"/>
    <path id="パス_7573" data-name="パス 7573" d="M128.169,29.906h2.383c.733,0,.733-.367.733-.55,0-.55-.183-.55-1.283-.917-.55-.183-.367-.55-.367-1.1V19.274c0-.733-.183-.917-.55-.917s-.55.367-1.833.917-2.2.367-2.2,1.1c0,.55.367.55.733.55.55,0,.917.183.917.917v5.5c0,.367,0,.917-.367,1.1-1.1.367-1.283.367-1.283.917,0,.367,0,.55.733.55Z" transform="translate(-84.104 -14.461)"/>
    <path id="パス_7574" data-name="パス 7574" d="M127.771,3.519A2.016,2.016,0,1,0,129.787,1.5,2.167,2.167,0,0,0,127.771,3.519Z" transform="translate(-85.885 -0.996)"/>
    <path id="パス_7575" data-name="パス 7575" d="M86.689,3.384c0-.317,0-.793-.55-.793a15.388,15.388,0,0,0-2.016.635c-.55.159-1.466.317-1.833.476s-.733.159-.733.635c0,.635.55.476.733.476a2.65,2.65,0,0,1,1.1.159c.183.159.183.476.183,1.111v9.044a2.394,2.394,0,0,1-.183,1.269c-.367.635.367.952.917.793.55-.317,1.466-.793,1.65-.952h.367a5.488,5.488,0,0,0,3.3,1.111A5.842,5.842,0,0,0,93.838,15.6,5.116,5.116,0,0,0,95.3,12.11a5.417,5.417,0,0,0-1.283-3.173,4.877,4.877,0,0,0-3.85-1.587,7.637,7.637,0,0,0-2.75.635h-.183c-.183,0-.183,0-.183-.159h0V3.384ZM88.705,15.6a4.23,4.23,0,0,1-2.016-.635V9.73a3.6,3.6,0,0,1,2.016-.793,3.121,3.121,0,0,1,3.116,3.173C91.638,13.538,90.9,15.6,88.705,15.6Z" transform="translate(-54.974 -1.717)"/>
  </g>
</svg>
