<svg xmlns="http://www.w3.org/2000/svg" width="40" height="40" viewBox="0 0 40 40">
  <g id="tiktok" transform="translate(-545 -12854)">
    <circle id="楕円形_41" cx="20" cy="20" r="20" transform="translate(545 12854)" fill="#575757"/>
    <path id="tiktok_logo_icon_144802" d="M20.244,10h3.243a5.288,5.288,0,0,0,1.474,3.479A5.689,5.689,0,0,0,28.4,14.97v3.38a8.3,8.3,0,0,1-3.439-.8,9.791,9.791,0,0,1-1.376-.8v7.257A7.618,7.618,0,0,1,22.5,27.3a6.327,6.327,0,0,1-4.815,2.684,5.022,5.022,0,0,1-3.341-.895A6.236,6.236,0,0,1,11.4,24.315V23.122a6.075,6.075,0,0,1,6.78-5.567.586.586,0,0,1,.393.1v3.678a2.925,2.925,0,0,0-3.636,1.789h0a2.894,2.894,0,0,0-.1,1.292A2.817,2.817,0,0,0,18.082,26.8a2.915,2.915,0,0,0,1.965-1.292,1.616,1.616,0,0,0,.295-.895c.1-1.491,0-2.982.1-4.473-.2-3.479-.2-6.76-.2-10.14Z" transform="translate(545 12854)" fill="#fff"/>
  </g>
</svg>
