<svg xmlns="http://www.w3.org/2000/svg" width="40" height="40" viewBox="0 0 40 40">
  <g id="youtube" transform="translate(-695 -12854)">
    <g id="yt" transform="translate(-485 5559)">
      <circle id="楕円形_43" data-name="楕円形 43" cx="20" cy="20" r="20" transform="translate(1180 7295)" fill="#575757"/>
      <g id="youtube-2" data-name="youtube" transform="translate(1188.161 7306.71)">
        <path id="パス_7559" data-name="パス 7559" d="M23.19,2.594A2.966,2.966,0,0,0,21.1.507C19.25,0,11.839,0,11.839,0S4.427,0,2.574.488A3.027,3.027,0,0,0,.488,2.594,31.259,31.259,0,0,0,0,8.289a31.144,31.144,0,0,0,.488,5.7,2.967,2.967,0,0,0,2.087,2.087c1.872.507,9.264.507,9.264.507s7.411,0,9.264-.488A2.966,2.966,0,0,0,23.19,14a31.26,31.26,0,0,0,.488-5.7A29.67,29.67,0,0,0,23.19,2.594Zm0,0" fill="#fff"/>
        <path id="パス_7560" data-name="パス 7560" d="M204.969,109.584l6.163-3.55-6.163-3.55Zm0,0" transform="translate(-195.49 -97.745)" fill="#575757"/>
      </g>
    </g>
  </g>
</svg>
